<?xml version="1.0" encoding="UTF-8" standalone="no"?>
<!DOCTYPE svg PUBLIC "-//W3C//DTD SVG 1.1//EN"
 "http://www.w3.org/Graphics/SVG/1.1/DTD/svg11.dtd">
<!-- Generated by graphviz version 2.44.0 (20200408.0750)
 -->
<!-- Title: G Pages: 1 -->
<svg width="1561pt" height="1324pt"
 viewBox="0.00 0.00 1561.00 1324.00" xmlns="http://www.w3.org/2000/svg" xmlns:xlink="http://www.w3.org/1999/xlink">
<g id="graph0" class="graph" transform="scale(1 1) rotate(0) translate(36 1288)">
<title>G</title>
<polygon fill="#f7f7f7" stroke="transparent" points="-36,36 -36,-1288 1525,-1288 1525,36 -36,36"/>
<!-- appaddress -->
<g id="node1" class="node">
<title>appaddress</title>
<polygon fill="none" stroke="black" points="100,-683 0,-683 0,-583 100,-583 100,-683"/>
<polygon fill="#d3d3d3" stroke="transparent" points="0,-646 0,-683 100,-683 100,-646 0,-646"/>
<polygon fill="none" stroke="black" points="0,-646 0,-683 100,-683 100,-646 0,-646"/>
<text text-anchor="start" x="26" y="-660.8" font-family="Helvetica Neue" font-size="14.00" fill="#333333">Address</text>
</g>
<!-- appuser -->
<g id="node2" class="node">
<title>appuser</title>
<polygon fill="none" stroke="black" points="415,-780 248,-780 248,-410 415,-410 415,-780"/>
<polygon fill="#d3d3d3" stroke="transparent" points="248.5,-743 248.5,-780 415.5,-780 415.5,-743 248.5,-743"/>
<polygon fill="none" stroke="black" points="248.5,-743 248.5,-780 415.5,-780 415.5,-743 248.5,-743"/>
<text text-anchor="start" x="318.5" y="-757.8" font-family="Helvetica Neue" font-size="14.00" fill="#333333">User</text>
<polygon fill="#ffffff" stroke="transparent" points="248.5,-706 248.5,-743 415.5,-743 415.5,-706 248.5,-706"/>
<polygon fill="none" stroke="black" points="248.5,-706 248.5,-743 415.5,-743 415.5,-706 248.5,-706"/>
<text text-anchor="start" x="259.5" y="-720.8" font-family="Helvetica Neue" font-size="14.00" fill="#333333">id (bigint)</text>
<polygon fill="#ffffff" stroke="transparent" points="248.5,-669 248.5,-706 415.5,-706 415.5,-669 248.5,-669"/>
<polygon fill="none" stroke="black" points="248.5,-669 248.5,-706 415.5,-706 415.5,-669 248.5,-669"/>
<text text-anchor="start" x="259.5" y="-683.8" font-family="Helvetica Neue" font-size="14.00" fill="#333333">city_id (bigint)</text>
<polygon fill="#ffffff" stroke="transparent" points="248.5,-632 248.5,-669 415.5,-669 415.5,-632 248.5,-632"/>
<polygon fill="none" stroke="black" points="248.5,-632 248.5,-669 415.5,-669 415.5,-632 248.5,-632"/>
<text text-anchor="start" x="259.5" y="-646.8" font-family="Helvetica Neue" font-size="14.00" fill="#333333">name (string)</text>
<polygon fill="#ffffff" stroke="transparent" points="248.5,-595 248.5,-632 415.5,-632 415.5,-595 248.5,-595"/>
<polygon fill="none" stroke="black" points="248.5,-595 248.5,-632 415.5,-632 415.5,-595 248.5,-595"/>
<text text-anchor="start" x="259.5" y="-609.8" font-family="Helvetica Neue" font-size="14.00" fill="#333333">email (string)</text>
<polygon fill="#ffffff" stroke="transparent" points="248.5,-558 248.5,-595 415.5,-595 415.5,-558 248.5,-558"/>
<polygon fill="none" stroke="black" points="248.5,-558 248.5,-595 415.5,-595 415.5,-558 248.5,-558"/>
<text text-anchor="start" x="259.5" y="-572.8" font-family="Helvetica Neue" font-size="14.00" fill="#333333">email_verified_at (datetime)</text>
<polygon fill="#ffffff" stroke="transparent" points="248.5,-521 248.5,-558 415.5,-558 415.5,-521 248.5,-521"/>
<polygon fill="none" stroke="black" points="248.5,-521 248.5,-558 415.5,-558 415.5,-521 248.5,-521"/>
<text text-anchor="start" x="259.5" y="-535.8" font-family="Helvetica Neue" font-size="14.00" fill="#333333">password (string)</text>
<polygon fill="#ffffff" stroke="transparent" points="248.5,-484 248.5,-521 415.5,-521 415.5,-484 248.5,-484"/>
<polygon fill="none" stroke="black" points="248.5,-484 248.5,-521 415.5,-521 415.5,-484 248.5,-484"/>
<text text-anchor="start" x="259.5" y="-498.8" font-family="Helvetica Neue" font-size="14.00" fill="#333333">remember_token (string)</text>
<polygon fill="#ffffff" stroke="transparent" points="248.5,-447 248.5,-484 415.5,-484 415.5,-447 248.5,-447"/>
<polygon fill="none" stroke="black" points="248.5,-447 248.5,-484 415.5,-484 415.5,-447 248.5,-447"/>
<text text-anchor="start" x="259.5" y="-461.8" font-family="Helvetica Neue" font-size="14.00" fill="#333333">created_at (datetime)</text>
<polygon fill="#ffffff" stroke="transparent" points="248.5,-410 248.5,-447 415.5,-447 415.5,-410 248.5,-410"/>
<polygon fill="none" stroke="black" points="248.5,-410 248.5,-447 415.5,-447 415.5,-410 248.5,-410"/>
<text text-anchor="start" x="259.5" y="-424.8" font-family="Helvetica Neue" font-size="14.00" fill="#333333">updated_at (datetime)</text>
</g>
<!-- appaddress&#45;&gt;appuser -->
<g id="edge1" class="edge">
<title>appaddress:user_id&#45;&gt;appuser:id</title>
<path fill="none" stroke="#f77f00" stroke-width="1.8" d="M109.32,-660.23C158.78,-683.34 224.57,-714.06 243.01,-722.67"/>
<polygon fill="#f77f00" stroke="#f77f00" stroke-width="1.8" points="109.26,-660.21 102.11,-651.9 104.73,-658.09 100.2,-655.98 100.2,-655.98 100.2,-655.98 104.73,-658.09 98.3,-660.06 109.26,-660.21 109.26,-660.21"/>
<polygon fill="#f77f00" stroke="#f77f00" stroke-width="1.8" points="249.21,-720.05 244.98,-729.11 243.17,-728.26 247.4,-719.2 249.21,-720.05"/>
<polyline fill="none" stroke="#f77f00" stroke-width="1.8" points="248,-725 243.47,-722.88 "/>
<text text-anchor="middle" x="174" y="-692.8" font-family="Helvetica Neue" font-size="14.00"> </text>
<text text-anchor="middle" x="205.16" y="-710.25" font-family="Helvetica Neue" font-size="14.00">BelongsTo</text>
<text text-anchor="middle" x="205.16" y="-695.25" font-family="Helvetica Neue" font-size="14.00">user</text>
</g>
<!-- appcity -->
<g id="node3" class="node">
<title>appcity</title>
<polygon fill="none" stroke="black" points="704,-712 563,-712 563,-490 704,-490 704,-712"/>
<polygon fill="#d3d3d3" stroke="transparent" points="563.5,-675 563.5,-712 704.5,-712 704.5,-675 563.5,-675"/>
<polygon fill="none" stroke="black" points="563.5,-675 563.5,-712 704.5,-712 704.5,-675 563.5,-675"/>
<text text-anchor="start" x="623.5" y="-689.8" font-family="Helvetica Neue" font-size="14.00" fill="#333333">City</text>
<polygon fill="#ffffff" stroke="transparent" points="563.5,-638 563.5,-675 704.5,-675 704.5,-638 563.5,-638"/>
<polygon fill="none" stroke="black" points="563.5,-638 563.5,-675 704.5,-675 704.5,-638 563.5,-638"/>
<text text-anchor="start" x="574.5" y="-652.8" font-family="Helvetica Neue" font-size="14.00" fill="#333333">id (bigint)</text>
<polygon fill="#ffffff" stroke="transparent" points="563.5,-601 563.5,-638 704.5,-638 704.5,-601 563.5,-601"/>
<polygon fill="none" stroke="black" points="563.5,-601 563.5,-638 704.5,-638 704.5,-601 563.5,-601"/>
<text text-anchor="start" x="574.5" y="-615.8" font-family="Helvetica Neue" font-size="14.00" fill="#333333">country_id (bigint)</text>
<polygon fill="#ffffff" stroke="transparent" points="563.5,-564 563.5,-601 704.5,-601 704.5,-564 563.5,-564"/>
<polygon fill="none" stroke="black" points="563.5,-564 563.5,-601 704.5,-601 704.5,-564 563.5,-564"/>
<text text-anchor="start" x="574.5" y="-578.8" font-family="Helvetica Neue" font-size="14.00" fill="#333333">name (string)</text>
<polygon fill="#ffffff" stroke="transparent" points="563.5,-527 563.5,-564 704.5,-564 704.5,-527 563.5,-527"/>
<polygon fill="none" stroke="black" points="563.5,-527 563.5,-564 704.5,-564 704.5,-527 563.5,-527"/>
<text text-anchor="start" x="574.5" y="-541.8" font-family="Helvetica Neue" font-size="14.00" fill="#333333">created_at (datetime)</text>
<polygon fill="#ffffff" stroke="transparent" points="563.5,-490 563.5,-527 704.5,-527 704.5,-490 563.5,-490"/>
<polygon fill="none" stroke="black" points="563.5,-490 563.5,-527 704.5,-527 704.5,-490 563.5,-490"/>
<text text-anchor="start" x="574.5" y="-504.8" font-family="Helvetica Neue" font-size="14.00" fill="#333333">updated_at (datetime)</text>
</g>
<!-- appaddress&#45;&gt;appcity -->
<g id="edge2" class="edge">
<title>appaddress:city_id&#45;&gt;appcity:id</title>
<path fill="none" stroke="#f77f00" stroke-width="1.8" d="M93.3,-574.17C151.19,-493.65 248,-359 248,-359 248,-359 415,-359 415,-359 415,-359 541.85,-614.41 560.68,-652.32"/>
<polygon fill="#f77f00" stroke="#f77f00" stroke-width="1.8" points="92.97,-574.62 83.48,-580.12 90.05,-578.68 87.13,-582.74 87.13,-582.74 87.13,-582.74 90.05,-578.68 90.79,-585.37 92.97,-574.62 92.97,-574.62"/>
<polygon fill="#f77f00" stroke="#f77f00" stroke-width="1.8" points="567.03,-653.88 558.08,-658.33 557.19,-656.54 566.14,-652.09 567.03,-653.88"/>
<polyline fill="none" stroke="#f77f00" stroke-width="1.8" points="563,-657 560.78,-652.52 "/>
<text text-anchor="middle" x="331.5" y="-362.8" font-family="Helvetica Neue" font-size="14.00"> </text>
<text text-anchor="middle" x="333.75" y="-347.8" font-family="Helvetica Neue" font-size="14.00">BelongsTo</text>
<text text-anchor="middle" x="333.75" y="-332.8" font-family="Helvetica Neue" font-size="14.00">city</text>
</g>
<!-- appuser&#45;&gt;appaddress -->
<g id="edge19" class="edge">
<title>appuser:id&#45;&gt;appaddress:user_id</title>
<path fill="none" stroke="#d62828" stroke-width="1.8" d="M248,-725C248,-725 176,-656 176,-656 176,-656 138.81,-649.16 105,-642.94"/>
<polygon fill="#d62828" stroke="#d62828" stroke-width="1.8" points="100.12,-647.12 101.93,-637.29 103.9,-637.65 102.09,-647.48 100.12,-647.12"/>
<polyline fill="none" stroke="#d62828" stroke-width="1.8" points="100.04,-642.02 104.96,-642.93 "/>
<text text-anchor="middle" x="174" y="-659.8" font-family="Helvetica Neue" font-size="14.00"> </text>
<text text-anchor="middle" x="208.94" y="-654.33" font-family="Helvetica Neue" font-size="14.00">HasOne</text>
<text text-anchor="middle" x="208.94" y="-639.33" font-family="Helvetica Neue" font-size="14.00">address</text>
</g>
<!-- appuser&#45;&gt;appcity -->
<g id="edge18" class="edge">
<title>appuser:city_id&#45;&gt;appcity:id</title>
<path fill="none" stroke="#f77f00" stroke-width="1.8" d="M425.17,-685.87C454.17,-679.8 536.52,-662.55 557.89,-658.07"/>
<polygon fill="#f77f00" stroke="#f77f00" stroke-width="1.8" points="424.79,-685.95 414.08,-683.6 419.89,-686.97 415,-688 415,-688 415,-688 419.89,-686.97 415.92,-692.4 424.79,-685.95 424.79,-685.95"/>
<polygon fill="#f77f00" stroke="#f77f00" stroke-width="1.8" points="561,-652.31 563.05,-662.1 561.09,-662.51 559.04,-652.72 561,-652.31"/>
<polyline fill="none" stroke="#f77f00" stroke-width="1.8" points="563,-657 558.11,-658.03 "/>
<text text-anchor="middle" x="489" y="-675.8" font-family="Helvetica Neue" font-size="14.00"> </text>
<text text-anchor="middle" x="462.53" y="-660.77" font-family="Helvetica Neue" font-size="14.00">BelongsTo</text>
<text text-anchor="middle" x="462.53" y="-645.77" font-family="Helvetica Neue" font-size="14.00">city</text>
</g>
<!-- appcountry -->
<g id="node4" class="node">
<title>appcountry</title>
<polygon fill="none" stroke="black" points="993,-483 852,-483 852,-261 993,-261 993,-483"/>
<polygon fill="#d3d3d3" stroke="transparent" points="852.5,-446 852.5,-483 993.5,-483 993.5,-446 852.5,-446"/>
<polygon fill="none" stroke="black" points="852.5,-446 852.5,-483 993.5,-483 993.5,-446 852.5,-446"/>
<text text-anchor="start" x="901" y="-460.8" font-family="Helvetica Neue" font-size="14.00" fill="#333333">Country</text>
<polygon fill="#ffffff" stroke="transparent" points="852.5,-409 852.5,-446 993.5,-446 993.5,-409 852.5,-409"/>
<polygon fill="none" stroke="black" points="852.5,-409 852.5,-446 993.5,-446 993.5,-409 852.5,-409"/>
<text text-anchor="start" x="863.5" y="-423.8" font-family="Helvetica Neue" font-size="14.00" fill="#333333">id (bigint)</text>
<polygon fill="#ffffff" stroke="transparent" points="852.5,-372 852.5,-409 993.5,-409 993.5,-372 852.5,-372"/>
<polygon fill="none" stroke="black" points="852.5,-372 852.5,-409 993.5,-409 993.5,-372 852.5,-372"/>
<text text-anchor="start" x="863.5" y="-386.8" font-family="Helvetica Neue" font-size="14.00" fill="#333333">code (string)</text>
<polygon fill="#ffffff" stroke="transparent" points="852.5,-335 852.5,-372 993.5,-372 993.5,-335 852.5,-335"/>
<polygon fill="none" stroke="black" points="852.5,-335 852.5,-372 993.5,-372 993.5,-335 852.5,-335"/>
<text text-anchor="start" x="863.5" y="-349.8" font-family="Helvetica Neue" font-size="14.00" fill="#333333">name (string)</text>
<polygon fill="#ffffff" stroke="transparent" points="852.5,-298 852.5,-335 993.5,-335 993.5,-298 852.5,-298"/>
<polygon fill="none" stroke="black" points="852.5,-298 852.5,-335 993.5,-335 993.5,-298 852.5,-298"/>
<text text-anchor="start" x="863.5" y="-312.8" font-family="Helvetica Neue" font-size="14.00" fill="#333333">created_at (datetime)</text>
<polygon fill="#ffffff" stroke="transparent" points="852.5,-261 852.5,-298 993.5,-298 993.5,-261 852.5,-261"/>
<polygon fill="none" stroke="black" points="852.5,-261 852.5,-298 993.5,-298 993.5,-261 852.5,-261"/>
<text text-anchor="start" x="863.5" y="-275.8" font-family="Helvetica Neue" font-size="14.00" fill="#333333">updated_at (datetime)</text>
</g>
<!-- appuser&#45;&gt;appcountry -->
<g id="edge16" class="edge">
<title>appuser&#45;&gt;appcountry</title>
<path fill="none" stroke="#003049" stroke-width="1.8" d="M415.06,-518.35C481.2,-456.94 563,-381 563,-381 563,-381 736.34,-376.65 841.95,-374"/>
<polygon fill="#003049" stroke="#003049" stroke-width="1.8" points="842.04,-377.5 851.95,-373.75 841.87,-370.5 842.04,-377.5"/>
<text text-anchor="middle" x="633.5" y="-384.8" font-family="Helvetica Neue" font-size="14.00"> </text>
<text text-anchor="middle" x="549.58" y="-368.83" font-family="Helvetica Neue" font-size="14.00">BelongsToThrough</text>
<text text-anchor="middle" x="549.58" y="-353.83" font-family="Helvetica Neue" font-size="14.00">country</text>
</g>
<!-- apppost -->
<g id="node5" class="node">
<title>apppost</title>
<polygon fill="none" stroke="black" points="1241,-801 1141,-801 1141,-701 1241,-701 1241,-801"/>
<polygon fill="#d3d3d3" stroke="transparent" points="1141,-764 1141,-801 1241,-801 1241,-764 1141,-764"/>
<polygon fill="none" stroke="black" points="1141,-764 1141,-801 1241,-801 1241,-764 1141,-764"/>
<text text-anchor="start" x="1178" y="-778.8" font-family="Helvetica Neue" font-size="14.00" fill="#333333">Post</text>
</g>
<!-- appuser&#45;&gt;apppost -->
<g id="edge20" class="edge">
<title>appuser:id&#45;&gt;apppost:user_id</title>
<path fill="none" stroke="#fcbf49" stroke-width="1.8" d="M415,-725C415,-725 563,-748 563,-748 563,-748 1066,-751 1066,-751"/>
<text text-anchor="middle" x="778" y="-752.8" font-family="Helvetica Neue" font-size="14.00"> </text>
<text text-anchor="middle" x="712.61" y="-737.85" font-family="Helvetica Neue" font-size="14.00">HasMany</text>
<text text-anchor="middle" x="712.61" y="-722.85" font-family="Helvetica Neue" font-size="14.00">posts</text>
</g>
<!-- appcomment -->
<g id="node6" class="node">
<title>appcomment</title>
<polygon fill="none" stroke="black" points="1489,-893 1389,-893 1389,-793 1489,-793 1489,-893"/>
<polygon fill="#d3d3d3" stroke="transparent" points="1389,-856 1389,-893 1489,-893 1489,-856 1389,-856"/>
<polygon fill="none" stroke="black" points="1389,-856 1389,-893 1489,-893 1489,-856 1389,-856"/>
<text text-anchor="start" x="1410.5" y="-870.8" font-family="Helvetica Neue" font-size="14.00" fill="#333333">Comment</text>
</g>
<!-- appuser&#45;&gt;appcomment -->
<g id="edge21" class="edge">
<title>appuser:id&#45;&gt;appcomment:user_id</title>
<path fill="none" stroke="#fcbf49" stroke-width="1.8" d="M415,-725C415,-725 487,-931 487,-931 487,-931 632.5,-1237 632.5,-1237 632.5,-1237 632.5,-1237 1192,-1237 1192,-1237 1332.56,-1011.88 1401.18,-901.97"/>
<polygon fill="#fcbf49" stroke="#fcbf49" stroke-width="1.8" points="1401.3,-901.78 1410.41,-895.68 1403.95,-897.54 1406.59,-893.3 1406.59,-893.3 1406.59,-893.3 1403.95,-897.54 1402.78,-890.92 1401.3,-901.78 1401.3,-901.78"/>
<text text-anchor="middle" x="922.5" y="-1240.8" font-family="Helvetica Neue" font-size="14.00"> </text>
<text text-anchor="middle" x="800.71" y="-1225.8" font-family="Helvetica Neue" font-size="14.00">HasMany</text>
<text text-anchor="middle" x="800.71" y="-1210.8" font-family="Helvetica Neue" font-size="14.00">comments</text>
</g>
<!-- appcompany -->
<g id="node7" class="node">
<title>appcompany</title>
<polygon fill="none" stroke="black" points="683.5,-100 583.5,-100 583.5,0 683.5,0 683.5,-100"/>
<polygon fill="#d3d3d3" stroke="transparent" points="583.5,-63 583.5,-100 683.5,-100 683.5,-63 583.5,-63"/>
<polygon fill="none" stroke="black" points="583.5,-63 583.5,-100 683.5,-100 683.5,-63 583.5,-63"/>
<text text-anchor="start" x="605.5" y="-77.8" font-family="Helvetica Neue" font-size="14.00" fill="#333333">Company</text>
</g>
<!-- appuser&#45;&gt;appcompany -->
<g id="edge17" class="edge">
<title>appuser:company_id&#45;&gt;appcompany:id</title>
<path fill="none" stroke="#f77f00" stroke-width="1.8" d="M404.02,-400.11C444.46,-289.93 487,-174 487,-174 487,-174 537.71,-130.79 579.25,-95.38"/>
<polygon fill="#f77f00" stroke="#f77f00" stroke-width="1.8" points="403.94,-400.34 396.27,-408.18 402.21,-405.04 400.49,-409.73 400.49,-409.73 400.49,-409.73 402.21,-405.04 404.72,-411.28 403.94,-400.34 403.94,-400.34"/>
<polygon fill="#f77f00" stroke="#f77f00" stroke-width="1.8" points="579.24,-88.82 585.72,-96.43 584.2,-97.73 577.71,-90.12 579.24,-88.82"/>
<polyline fill="none" stroke="#f77f00" stroke-width="1.8" points="583.24,-91.98 579.43,-95.22 "/>
<text text-anchor="middle" x="489" y="-177.8" font-family="Helvetica Neue" font-size="14.00"> </text>
<text text-anchor="middle" x="437.39" y="-218.96" font-family="Helvetica Neue" font-size="14.00">BelongsTo</text>
<text text-anchor="middle" x="437.39" y="-203.96" font-family="Helvetica Neue" font-size="14.00">company</text>
</g>
<!-- appcity&#45;&gt;appuser -->
<g id="edge4" class="edge">
<title>appcity:id&#45;&gt;appuser:city_id</title>
<path fill="none" stroke="#fcbf49" stroke-width="1.8" d="M563,-657C563,-657 491,-621 491,-621 491,-621 487,-621 487,-621 487,-621 440.83,-663.96 422.43,-681.08"/>
<polygon fill="#fcbf49" stroke="#fcbf49" stroke-width="1.8" points="422.32,-681.19 411.93,-684.71 418.66,-684.59 415,-688 415,-688 415,-688 418.66,-684.59 418.07,-691.29 422.32,-681.19 422.32,-681.19"/>
<text text-anchor="middle" x="489" y="-624.8" font-family="Helvetica Neue" font-size="14.00"> </text>
<text text-anchor="middle" x="458.65" y="-611.06" font-family="Helvetica Neue" font-size="14.00">HasMany</text>
<text text-anchor="middle" x="458.65" y="-596.06" font-family="Helvetica Neue" font-size="14.00">users</text>
</g>
<!-- appcity&#45;&gt;appcountry -->
<g id="edge3" class="edge">
<title>appcity:country_id&#45;&gt;appcountry:id</title>
<path fill="none" stroke="#f77f00" stroke-width="1.8" d="M710.36,-611.75C735.92,-578.59 830.68,-455.66 848.94,-431.97"/>
<polygon fill="#f77f00" stroke="#f77f00" stroke-width="1.8" points="710.11,-612.08 700.44,-617.25 707.05,-616.04 704,-620 704,-620 704,-620 707.05,-616.04 707.56,-622.75 710.11,-612.08 710.11,-612.08"/>
<polygon fill="#f77f00" stroke="#f77f00" stroke-width="1.8" points="847.43,-425.74 855.35,-431.84 854.13,-433.43 846.21,-427.32 847.43,-425.74"/>
<polyline fill="none" stroke="#f77f00" stroke-width="1.8" points="852,-428 848.95,-431.96 "/>
<text text-anchor="middle" x="778" y="-527.8" font-family="Helvetica Neue" font-size="14.00"> </text>
<text text-anchor="middle" x="750.65" y="-510.66" font-family="Helvetica Neue" font-size="14.00">BelongsTo</text>
<text text-anchor="middle" x="750.65" y="-495.66" font-family="Helvetica Neue" font-size="14.00">country</text>
</g>
<!-- appcity&#45;&gt;apppost -->
<g id="edge5" class="edge">
<title>appcity&#45;&gt;apppost</title>
<path fill="none" stroke="#003049" stroke-width="1.8" d="M704.05,-616.52C808.3,-639.78 993,-681 993,-681 993,-681 1066,-751 1066,-751"/>
<path fill="none" stroke="#003049" stroke-width="1.8" d="M1068,-751C1068,-751 1099.65,-751 1130.71,-751"/>
<polygon fill="#003049" stroke="#003049" stroke-width="1.8" points="1130.73,-754.5 1140.73,-751 1130.73,-747.5 1130.73,-754.5"/>
<text text-anchor="middle" x="922.5" y="-684.8" font-family="Helvetica Neue" font-size="14.00"> </text>
<text text-anchor="middle" x="878.48" y="-655.4" font-family="Helvetica Neue" font-size="14.00">HasManyThrough</text>
<text text-anchor="middle" x="878.48" y="-640.4" font-family="Helvetica Neue" font-size="14.00">posts</text>
</g>
<!-- appcountry&#45;&gt;appuser -->
<g id="edge11" class="edge">
<title>appcountry&#45;&gt;appuser</title>
<path fill="none" stroke="#003049" stroke-width="1.8" d="M851.95,-385C747.7,-404.48 563,-439 563,-439 563,-439 488.08,-489.7 423.67,-533.3"/>
<polygon fill="#003049" stroke="#003049" stroke-width="1.8" points="421.38,-530.62 415.06,-539.12 425.31,-536.41 421.38,-530.62"/>
<text text-anchor="middle" x="633.5" y="-442.8" font-family="Helvetica Neue" font-size="14.00"> </text>
<text text-anchor="middle" x="574.79" y="-416.25" font-family="Helvetica Neue" font-size="14.00">HasManyThrough</text>
<text text-anchor="middle" x="574.79" y="-401.25" font-family="Helvetica Neue" font-size="14.00">users</text>
</g>
<!-- appcountry&#45;&gt;appcity -->
<g id="edge10" class="edge">
<title>appcountry:id&#45;&gt;appcity:country_id</title>
<path fill="none" stroke="#fcbf49" stroke-width="1.8" d="M852,-428C852,-428 780,-557 780,-557 780,-557 731.26,-597.4 711.85,-613.5"/>
<polygon fill="#fcbf49" stroke="#fcbf49" stroke-width="1.8" points="711.7,-613.62 701.13,-616.54 707.85,-616.81 704,-620 704,-620 704,-620 707.85,-616.81 706.87,-623.46 711.7,-613.62 711.7,-613.62"/>
<text text-anchor="middle" x="778" y="-562.8" font-family="Helvetica Neue" font-size="14.00"> </text>
<text text-anchor="middle" x="821.43" y="-519.95" font-family="Helvetica Neue" font-size="14.00">HasMany</text>
<text text-anchor="middle" x="821.43" y="-504.95" font-family="Helvetica Neue" font-size="14.00">cities</text>
</g>
<!-- appcountry&#45;&gt;apppost -->
<g id="edge12" class="edge">
<title>appcountry&#45;&gt;apppost</title>
<path fill="none" stroke="#003049" stroke-width="1.8" d="M993.17,-471.08C1042.63,-541.43 1107.36,-633.48 1148.82,-692.44"/>
<polygon fill="#003049" stroke="#003049" stroke-width="1.8" points="1146.15,-694.73 1154.77,-700.9 1151.88,-690.7 1146.15,-694.73"/>
<text text-anchor="middle" x="1067" y="-581.8" font-family="Helvetica Neue" font-size="14.00"> </text>
<text text-anchor="middle" x="1113" y="-570.56" font-family="Helvetica Neue" font-size="14.00">HasManyDeep</text>
<text text-anchor="middle" x="1113" y="-555.56" font-family="Helvetica Neue" font-size="14.00">posts</text>
</g>
<!-- appcountry&#45;&gt;appcomment -->
<g id="edge13" class="edge">
<title>appcountry&#45;&gt;appcomment</title>
<path fill="none" stroke="#003049" stroke-width="1.8" d="M993.18,-433.01C1086.64,-514.84 1241,-650 1241,-650 1241,-650 1323.26,-730.59 1381.47,-787.62"/>
<polygon fill="#003049" stroke="#003049" stroke-width="1.8" points="1379.2,-790.3 1388.8,-794.8 1384.1,-785.3 1379.2,-790.3"/>
<text text-anchor="middle" x="1191" y="-653.8" font-family="Helvetica Neue" font-size="14.00"> </text>
<text text-anchor="middle" x="1233.06" y="-595.07" font-family="Helvetica Neue" font-size="14.00">HasManyDeep</text>
<text text-anchor="middle" x="1233.06" y="-580.07" font-family="Helvetica Neue" font-size="14.00">comments</text>
</g>
<!-- apppost&#45;&gt;appuser -->
<g id="edge14" class="edge">
<title>apppost:user_id&#45;&gt;appuser:id</title>
<path fill="none" stroke="#f77f00" stroke-width="1.8" d="M623.83,-962.52C592.51,-942.71 487,-876 487,-876 487,-876 415,-725 415,-725"/>
<polygon fill="#f77f00" stroke="#f77f00" stroke-width="1.8" points="624.05,-962.66 630.1,-971.8 628.27,-965.33 632.5,-968 632.5,-968 632.5,-968 628.27,-965.33 634.9,-964.2 624.05,-962.66 624.05,-962.66"/>
<path fill="none" stroke="#f77f00" stroke-width="1.8" d="M1140.78,-773.37C1107.29,-788.6 1069,-806 1069,-806 1069,-806 776,-906 776,-906 776,-906 663.76,-955.18 639.21,-965.94"/>
<polygon fill="#f77f00" stroke="#f77f00" stroke-width="1.8" points="637.42,-972.18 633.41,-963.02 635.24,-962.22 639.25,-971.38 637.42,-972.18"/>
<polyline fill="none" stroke="#f77f00" stroke-width="1.8" points="634.5,-968 639.08,-965.99 "/>
<text text-anchor="middle" x="778" y="-909.8" font-family="Helvetica Neue" font-size="14.00"> </text>
<text text-anchor="middle" x="1015.91" y="-803.02" font-family="Helvetica Neue" font-size="14.00">BelongsTo</text>
<text text-anchor="middle" x="1015.91" y="-788.02" font-family="Helvetica Neue" font-size="14.00">user</text>
</g>
<!-- apppost&#45;&gt;appcomment -->
<g id="edge15" class="edge">
<title>apppost:id&#45;&gt;appcomment:post_id</title>
<path fill="none" stroke="#fcbf49" stroke-width="1.8" d="M1241.19,-769.4C1281,-784.28 1337.16,-805.29 1379.31,-821.05"/>
<polygon fill="#fcbf49" stroke="#fcbf49" stroke-width="1.8" points="1379.53,-821.13 1387.32,-828.85 1384.21,-822.88 1388.89,-824.64 1388.89,-824.64 1388.89,-824.64 1384.21,-822.88 1390.47,-820.42 1379.53,-821.13 1379.53,-821.13"/>
<text text-anchor="middle" x="1315" y="-800.8" font-family="Helvetica Neue" font-size="14.00"> </text>
<text text-anchor="middle" x="1279.75" y="-784.02" font-family="Helvetica Neue" font-size="14.00">HasMany</text>
<text text-anchor="middle" x="1279.75" y="-769.02" font-family="Helvetica Neue" font-size="14.00">comments</text>
</g>
<!-- appcomment&#45;&gt;appuser -->
<g id="edge6" class="edge">
<title>appcomment:user_id&#45;&gt;appuser:id</title>
<path fill="none" stroke="#f77f00" stroke-width="1.8" d="M1388.95,-850.63C1224.04,-876.29 696.72,-958.32 639.54,-967.22"/>
<polygon fill="#f77f00" stroke="#f77f00" stroke-width="1.8" points="636.26,-972.79 634.72,-962.91 636.7,-962.6 638.23,-972.48 636.26,-972.79"/>
<polyline fill="none" stroke="#f77f00" stroke-width="1.8" points="634.5,-968 639.44,-967.23 "/>
<text text-anchor="middle" x="922.5" y="-937.8" font-family="Helvetica Neue" font-size="14.00"> </text>
<text text-anchor="middle" x="985.24" y="-897.72" font-family="Helvetica Neue" font-size="14.00">BelongsTo</text>
<text text-anchor="middle" x="985.24" y="-882.72" font-family="Helvetica Neue" font-size="14.00">user</text>
</g>
<!-- appcomment&#45;&gt;apppost -->
<g id="edge7" class="edge">
<title>appcomment:post_id&#45;&gt;apppost:id</title>
<path fill="none" stroke="#f77f00" stroke-width="1.8" d="M1380.87,-797.2C1349.54,-772.08 1317,-746 1317,-746 1317,-746 1313,-746 1313,-746 1313,-746 1278.5,-747.43 1246.35,-748.75"/>
<polygon fill="#f77f00" stroke="#f77f00" stroke-width="1.8" points="1380.98,-797.29 1385.97,-807.06 1384.88,-800.42 1388.78,-803.55 1388.78,-803.55 1388.78,-803.55 1384.88,-800.42 1391.6,-800.04 1380.98,-797.29 1380.98,-797.29"/>
<polygon fill="#f77f00" stroke="#f77f00" stroke-width="1.8" points="1242.42,-753.92 1242.01,-743.93 1244.01,-743.85 1244.42,-753.84 1242.42,-753.92"/>
<polyline fill="none" stroke="#f77f00" stroke-width="1.8" points="1241.22,-748.97 1246.21,-748.76 "/>
<text text-anchor="middle" x="1315" y="-749.8" font-family="Helvetica Neue" font-size="14.00"> </text>
<text text-anchor="middle" x="1350.35" y="-738.29" font-family="Helvetica Neue" font-size="14.00">BelongsTo</text>
<text text-anchor="middle" x="1350.35" y="-723.29" font-family="Helvetica Neue" font-size="14.00">post</text>
</g>
<!-- appcompany&#45;&gt;appuser -->
<g id="edge8" class="edge">
<title>appcompany:id&#45;&gt;appuser:company_id</title>
<path fill="none" stroke="#fcbf49" stroke-width="1.8" d="M583.24,-56.77C541.03,-62.57 487,-70 487,-70 487,-70 415,-356 415,-356 415,-356 408.75,-374.1 399.7,-400.33"/>
<polygon fill="#fcbf49" stroke="#fcbf49" stroke-width="1.8" points="399.65,-400.48 392.13,-408.47 398.01,-405.21 396.38,-409.93 396.38,-409.93 396.38,-409.93 398.01,-405.21 400.64,-411.4 399.65,-400.48 399.65,-400.48"/>
<text text-anchor="middle" x="489" y="-73.8" font-family="Helvetica Neue" font-size="14.00"> </text>
<text text-anchor="middle" x="430.13" y="-177.44" font-family="Helvetica Neue" font-size="14.00">HasMany</text>
<text text-anchor="middle" x="430.13" y="-162.44" font-family="Helvetica Neue" font-size="14.00">users</text>
</g>
<!-- appcompany&#45;&gt;apppost -->
<g id="edge9" class="edge">
<title>appcompany&#45;&gt;apppost</title>
<path fill="none" stroke="#003049" stroke-width="1.8" d="M683.6,-71.91C781.78,-115.73 993,-210 993,-210 993,-210 1141,-683 1141,-683 1141,-683 1143.73,-686.79 1147.91,-692.59"/>
<polygon fill="#003049" stroke="#003049" stroke-width="1.8" points="1145.19,-694.8 1153.87,-700.87 1150.87,-690.71 1145.19,-694.8"/>
<text text-anchor="middle" x="922.5" y="-213.8" font-family="Helvetica Neue" font-size="14.00"> </text>
<text text-anchor="middle" x="1068.18" y="-279.26" font-family="Helvetica Neue" font-size="14.00">HasManyThrough</text>
<text text-anchor="middle" x="1068.18" y="-264.26" font-family="Helvetica Neue" font-size="14.00">posts</text>
</g>
</g>
</svg>
