<?xml version="1.0" encoding="UTF-8" standalone="no"?>
<!DOCTYPE svg PUBLIC "-//W3C//DTD SVG 1.1//EN"
 "http://www.w3.org/Graphics/SVG/1.1/DTD/svg11.dtd">
<!-- Generated by graphviz version 2.44.0 (20200408.0750)
 -->
<!-- Title: G Pages: 1 -->
<svg width="1313pt" height="1036pt"
 viewBox="0.00 0.00 1313.00 1036.00" xmlns="http://www.w3.org/2000/svg" xmlns:xlink="http://www.w3.org/1999/xlink">
<g id="graph0" class="graph" transform="scale(1 1) rotate(0) translate(36 1000)">
<title>G</title>
<polygon fill="#f7f7f7" stroke="transparent" points="-36,36 -36,-1000 1277,-1000 1277,36 -36,36"/>
<!-- appaddress -->
<g id="node1" class="node">
<title>appaddress</title>
<polygon fill="none" stroke="black" points="100,-603 0,-603 0,-503 100,-503 100,-603"/>
<polygon fill="#d3d3d3" stroke="transparent" points="0,-566 0,-603 100,-603 100,-566 0,-566"/>
<polygon fill="none" stroke="black" points="0,-566 0,-603 100,-603 100,-566 0,-566"/>
<text text-anchor="start" x="26" y="-580.8" font-family="Helvetica Neue" font-size="14.00" fill="#333333">Address</text>
</g>
<!-- appuser -->
<g id="node2" class="node">
<title>appuser</title>
<polygon fill="none" stroke="black" points="415,-700 248,-700 248,-330 415,-330 415,-700"/>
<polygon fill="#d3d3d3" stroke="transparent" points="248.5,-663 248.5,-700 415.5,-700 415.5,-663 248.5,-663"/>
<polygon fill="none" stroke="black" points="248.5,-663 248.5,-700 415.5,-700 415.5,-663 248.5,-663"/>
<text text-anchor="start" x="318.5" y="-677.8" font-family="Helvetica Neue" font-size="14.00" fill="#333333">User</text>
<polygon fill="#ffffff" stroke="transparent" points="248.5,-626 248.5,-663 415.5,-663 415.5,-626 248.5,-626"/>
<polygon fill="none" stroke="black" points="248.5,-626 248.5,-663 415.5,-663 415.5,-626 248.5,-626"/>
<text text-anchor="start" x="259.5" y="-640.8" font-family="Helvetica Neue" font-size="14.00" fill="#333333">id (bigint)</text>
<polygon fill="#ffffff" stroke="transparent" points="248.5,-589 248.5,-626 415.5,-626 415.5,-589 248.5,-589"/>
<polygon fill="none" stroke="black" points="248.5,-589 248.5,-626 415.5,-626 415.5,-589 248.5,-589"/>
<text text-anchor="start" x="259.5" y="-603.8" font-family="Helvetica Neue" font-size="14.00" fill="#333333">city_id (bigint)</text>
<polygon fill="#ffffff" stroke="transparent" points="248.5,-552 248.5,-589 415.5,-589 415.5,-552 248.5,-552"/>
<polygon fill="none" stroke="black" points="248.5,-552 248.5,-589 415.5,-589 415.5,-552 248.5,-552"/>
<text text-anchor="start" x="259.5" y="-566.8" font-family="Helvetica Neue" font-size="14.00" fill="#333333">name (string)</text>
<polygon fill="#ffffff" stroke="transparent" points="248.5,-515 248.5,-552 415.5,-552 415.5,-515 248.5,-515"/>
<polygon fill="none" stroke="black" points="248.5,-515 248.5,-552 415.5,-552 415.5,-515 248.5,-515"/>
<text text-anchor="start" x="259.5" y="-529.8" font-family="Helvetica Neue" font-size="14.00" fill="#333333">email (string)</text>
<polygon fill="#ffffff" stroke="transparent" points="248.5,-478 248.5,-515 415.5,-515 415.5,-478 248.5,-478"/>
<polygon fill="none" stroke="black" points="248.5,-478 248.5,-515 415.5,-515 415.5,-478 248.5,-478"/>
<text text-anchor="start" x="259.5" y="-492.8" font-family="Helvetica Neue" font-size="14.00" fill="#333333">email_verified_at (datetime)</text>
<polygon fill="#ffffff" stroke="transparent" points="248.5,-441 248.5,-478 415.5,-478 415.5,-441 248.5,-441"/>
<polygon fill="none" stroke="black" points="248.5,-441 248.5,-478 415.5,-478 415.5,-441 248.5,-441"/>
<text text-anchor="start" x="259.5" y="-455.8" font-family="Helvetica Neue" font-size="14.00" fill="#333333">password (string)</text>
<polygon fill="#ffffff" stroke="transparent" points="248.5,-404 248.5,-441 415.5,-441 415.5,-404 248.5,-404"/>
<polygon fill="none" stroke="black" points="248.5,-404 248.5,-441 415.5,-441 415.5,-404 248.5,-404"/>
<text text-anchor="start" x="259.5" y="-418.8" font-family="Helvetica Neue" font-size="14.00" fill="#333333">remember_token (string)</text>
<polygon fill="#ffffff" stroke="transparent" points="248.5,-367 248.5,-404 415.5,-404 415.5,-367 248.5,-367"/>
<polygon fill="none" stroke="black" points="248.5,-367 248.5,-404 415.5,-404 415.5,-367 248.5,-367"/>
<text text-anchor="start" x="259.5" y="-381.8" font-family="Helvetica Neue" font-size="14.00" fill="#333333">created_at (datetime)</text>
<polygon fill="#ffffff" stroke="transparent" points="248.5,-330 248.5,-367 415.5,-367 415.5,-330 248.5,-330"/>
<polygon fill="none" stroke="black" points="248.5,-330 248.5,-367 415.5,-367 415.5,-330 248.5,-330"/>
<text text-anchor="start" x="259.5" y="-344.8" font-family="Helvetica Neue" font-size="14.00" fill="#333333">updated_at (datetime)</text>
</g>
<!-- appaddress&#45;&gt;appuser -->
<g id="edge1" class="edge">
<title>appaddress:user_id&#45;&gt;appuser:id</title>
<path fill="none" stroke="#f77f00" stroke-width="1.8" d="M110.53,-550.54C141.1,-549.28 172,-548 172,-548 172,-548 176,-548 176,-548 176,-548 231.12,-622.27 244.91,-640.83"/>
<polygon fill="#f77f00" stroke="#f77f00" stroke-width="1.8" points="110.21,-550.55 100.03,-546.47 105.21,-550.76 100.22,-550.97 100.22,-550.97 100.22,-550.97 105.21,-550.76 100.4,-555.46 110.21,-550.55 110.21,-550.55"/>
<polygon fill="#f77f00" stroke="#f77f00" stroke-width="1.8" points="251.42,-641.22 243.39,-647.18 242.2,-645.57 250.23,-639.61 251.42,-641.22"/>
<polyline fill="none" stroke="#f77f00" stroke-width="1.8" points="248,-645 245.02,-640.99 "/>
<text text-anchor="middle" x="174" y="-551.8" font-family="Helvetica Neue" font-size="14.00"> </text>
<text text-anchor="middle" x="161.93" y="-586.91" font-family="Helvetica Neue" font-size="14.00">BelongsTo</text>
<text text-anchor="middle" x="161.93" y="-571.91" font-family="Helvetica Neue" font-size="14.00">user</text>
</g>
<!-- appcity -->
<g id="node3" class="node">
<title>appcity</title>
<polygon fill="none" stroke="black" points="704,-362 563,-362 563,-140 704,-140 704,-362"/>
<polygon fill="#d3d3d3" stroke="transparent" points="563.5,-325 563.5,-362 704.5,-362 704.5,-325 563.5,-325"/>
<polygon fill="none" stroke="black" points="563.5,-325 563.5,-362 704.5,-362 704.5,-325 563.5,-325"/>
<text text-anchor="start" x="623.5" y="-339.8" font-family="Helvetica Neue" font-size="14.00" fill="#333333">City</text>
<polygon fill="#ffffff" stroke="transparent" points="563.5,-288 563.5,-325 704.5,-325 704.5,-288 563.5,-288"/>
<polygon fill="none" stroke="black" points="563.5,-288 563.5,-325 704.5,-325 704.5,-288 563.5,-288"/>
<text text-anchor="start" x="574.5" y="-302.8" font-family="Helvetica Neue" font-size="14.00" fill="#333333">id (bigint)</text>
<polygon fill="#ffffff" stroke="transparent" points="563.5,-251 563.5,-288 704.5,-288 704.5,-251 563.5,-251"/>
<polygon fill="none" stroke="black" points="563.5,-251 563.5,-288 704.5,-288 704.5,-251 563.5,-251"/>
<text text-anchor="start" x="574.5" y="-265.8" font-family="Helvetica Neue" font-size="14.00" fill="#333333">country_id (bigint)</text>
<polygon fill="#ffffff" stroke="transparent" points="563.5,-214 563.5,-251 704.5,-251 704.5,-214 563.5,-214"/>
<polygon fill="none" stroke="black" points="563.5,-214 563.5,-251 704.5,-251 704.5,-214 563.5,-214"/>
<text text-anchor="start" x="574.5" y="-228.8" font-family="Helvetica Neue" font-size="14.00" fill="#333333">name (string)</text>
<polygon fill="#ffffff" stroke="transparent" points="563.5,-177 563.5,-214 704.5,-214 704.5,-177 563.5,-177"/>
<polygon fill="none" stroke="black" points="563.5,-177 563.5,-214 704.5,-214 704.5,-177 563.5,-177"/>
<text text-anchor="start" x="574.5" y="-191.8" font-family="Helvetica Neue" font-size="14.00" fill="#333333">created_at (datetime)</text>
<polygon fill="#ffffff" stroke="transparent" points="563.5,-140 563.5,-177 704.5,-177 704.5,-140 563.5,-140"/>
<polygon fill="none" stroke="black" points="563.5,-140 563.5,-177 704.5,-177 704.5,-140 563.5,-140"/>
<text text-anchor="start" x="574.5" y="-154.8" font-family="Helvetica Neue" font-size="14.00" fill="#333333">updated_at (datetime)</text>
</g>
<!-- appaddress&#45;&gt;appcity -->
<g id="edge2" class="edge">
<title>appaddress:city_id&#45;&gt;appcity:id</title>
<path fill="none" stroke="#f77f00" stroke-width="1.8" d="M93.3,-494.17C151.19,-413.65 248,-279 248,-279 248,-279 415,-279 415,-279 415,-279 532.4,-301.21 558.08,-306.07"/>
<polygon fill="#f77f00" stroke="#f77f00" stroke-width="1.8" points="92.97,-494.62 83.48,-500.12 90.05,-498.68 87.13,-502.74 87.13,-502.74 87.13,-502.74 90.05,-498.68 90.79,-505.37 92.97,-494.62 92.97,-494.62"/>
<polygon fill="#f77f00" stroke="#f77f00" stroke-width="1.8" points="562.95,-301.9 561.09,-311.73 559.12,-311.36 560.98,-301.53 562.95,-301.9"/>
<polyline fill="none" stroke="#f77f00" stroke-width="1.8" points="563,-307 558.09,-306.07 "/>
<text text-anchor="middle" x="331.5" y="-282.8" font-family="Helvetica Neue" font-size="14.00"> </text>
<text text-anchor="middle" x="242.8" y="-267.8" font-family="Helvetica Neue" font-size="14.00">BelongsTo</text>
<text text-anchor="middle" x="242.8" y="-252.8" font-family="Helvetica Neue" font-size="14.00">city</text>
</g>
<!-- appuser&#45;&gt;appaddress -->
<g id="edge16" class="edge">
<title>appuser:id&#45;&gt;appaddress:user_id</title>
<path fill="none" stroke="#d62828" stroke-width="1.8" d="M248,-645C248,-645 163.38,-605.48 105.06,-578.24"/>
<polygon fill="#d62828" stroke="#d62828" stroke-width="1.8" points="98.99,-580.93 103.23,-571.87 105.04,-572.72 100.81,-581.78 98.99,-580.93"/>
<polyline fill="none" stroke="#d62828" stroke-width="1.8" points="100.2,-575.98 104.73,-578.09 "/>
<text text-anchor="middle" x="174" y="-612.8" font-family="Helvetica Neue" font-size="14.00"> </text>
<text text-anchor="middle" x="199.53" y="-630.42" font-family="Helvetica Neue" font-size="14.00">HasOne</text>
<text text-anchor="middle" x="199.53" y="-615.42" font-family="Helvetica Neue" font-size="14.00">address</text>
</g>
<!-- appuser&#45;&gt;appcity -->
<g id="edge15" class="edge">
<title>appuser:city_id&#45;&gt;appcity:id</title>
<path fill="none" stroke="#f77f00" stroke-width="1.8" d="M419.43,-598.99C442.03,-553.02 544.12,-345.4 560.72,-311.64"/>
<polygon fill="#f77f00" stroke="#f77f00" stroke-width="1.8" points="419.41,-599.03 410.96,-606.01 417.21,-603.51 415,-608 415,-608 415,-608 417.21,-603.51 419.04,-609.99 419.41,-599.03 419.41,-599.03"/>
<polygon fill="#f77f00" stroke="#f77f00" stroke-width="1.8" points="558.07,-305.69 567.05,-310.1 566.16,-311.9 557.19,-307.49 558.07,-305.69"/>
<polyline fill="none" stroke="#f77f00" stroke-width="1.8" points="563,-307 560.79,-311.49 "/>
<text text-anchor="middle" x="489" y="-460.8" font-family="Helvetica Neue" font-size="14.00"> </text>
<text text-anchor="middle" x="519.07" y="-444.12" font-family="Helvetica Neue" font-size="14.00">BelongsTo</text>
<text text-anchor="middle" x="519.07" y="-429.12" font-family="Helvetica Neue" font-size="14.00">city</text>
</g>
<!-- apppost -->
<g id="node5" class="node">
<title>apppost</title>
<polygon fill="none" stroke="black" points="972.5,-790 872.5,-790 872.5,-690 972.5,-690 972.5,-790"/>
<polygon fill="#d3d3d3" stroke="transparent" points="872.5,-753 872.5,-790 972.5,-790 972.5,-753 872.5,-753"/>
<polygon fill="none" stroke="black" points="872.5,-753 872.5,-790 972.5,-790 972.5,-753 872.5,-753"/>
<text text-anchor="start" x="909.5" y="-767.8" font-family="Helvetica Neue" font-size="14.00" fill="#333333">Post</text>
</g>
<!-- appuser&#45;&gt;apppost -->
<g id="edge17" class="edge">
<title>appuser:id&#45;&gt;apppost:user_id</title>
<path fill="none" stroke="#fcbf49" stroke-width="1.8" d="M415,-645C415,-645 487,-713 487,-713 487,-713 563,-731 563,-731 563,-731 776,-768 776,-768 776,-768 780,-768 780,-768 780,-768 823.43,-759.41 862.17,-751.74"/>
<polygon fill="#fcbf49" stroke="#fcbf49" stroke-width="1.8" points="862.6,-751.66 873.28,-754.13 867.5,-750.69 872.41,-749.71 872.41,-749.71 872.41,-749.71 867.5,-750.69 871.53,-745.3 862.6,-751.66 862.6,-751.66"/>
<text text-anchor="middle" x="633.5" y="-757.8" font-family="Helvetica Neue" font-size="14.00"> </text>
<text text-anchor="middle" x="598.47" y="-730.65" font-family="Helvetica Neue" font-size="14.00">HasMany</text>
<text text-anchor="middle" x="598.47" y="-715.65" font-family="Helvetica Neue" font-size="14.00">posts</text>
</g>
<!-- appcomment -->
<g id="node6" class="node">
<title>appcomment</title>
<polygon fill="none" stroke="black" points="1241,-964 1141,-964 1141,-864 1241,-864 1241,-964"/>
<polygon fill="#d3d3d3" stroke="transparent" points="1141,-927 1141,-964 1241,-964 1241,-927 1141,-927"/>
<polygon fill="none" stroke="black" points="1141,-927 1141,-964 1241,-964 1241,-927 1141,-927"/>
<text text-anchor="start" x="1162.5" y="-941.8" font-family="Helvetica Neue" font-size="14.00" fill="#333333">Comment</text>
</g>
<!-- appuser&#45;&gt;appcomment -->
<g id="edge18" class="edge">
<title>appuser:id&#45;&gt;appcomment:user_id</title>
<path fill="none" stroke="#fcbf49" stroke-width="1.8" d="M415,-645C415,-645 487,-823 487,-823 487,-823 563,-855 563,-855 563,-855 852,-914 852,-914 852,-914 1065,-943 1065,-943 1065,-943 1069,-943 1069,-943 1069,-943 1100.17,-935.53 1130.87,-928.17"/>
<polygon fill="#fcbf49" stroke="#fcbf49" stroke-width="1.8" points="1131.06,-928.13 1141.83,-930.17 1135.92,-926.96 1140.78,-925.8 1140.78,-925.8 1140.78,-925.8 1135.92,-926.96 1139.74,-921.42 1131.06,-928.13 1131.06,-928.13"/>
<text text-anchor="middle" x="778" y="-901.8" font-family="Helvetica Neue" font-size="14.00"> </text>
<text text-anchor="middle" x="680.98" y="-874.11" font-family="Helvetica Neue" font-size="14.00">HasMany</text>
<text text-anchor="middle" x="680.98" y="-859.11" font-family="Helvetica Neue" font-size="14.00">comments</text>
</g>
<!-- appcompany -->
<g id="node7" class="node">
<title>appcompany</title>
<polygon fill="none" stroke="black" points="683.5,-534 583.5,-534 583.5,-434 683.5,-434 683.5,-534"/>
<polygon fill="#d3d3d3" stroke="transparent" points="583.5,-497 583.5,-534 683.5,-534 683.5,-497 583.5,-497"/>
<polygon fill="none" stroke="black" points="583.5,-497 583.5,-534 683.5,-534 683.5,-497 583.5,-497"/>
<text text-anchor="start" x="605.5" y="-511.8" font-family="Helvetica Neue" font-size="14.00" fill="#333333">Company</text>
</g>
<!-- appuser&#45;&gt;appcompany -->
<g id="edge14" class="edge">
<title>appuser:company_id&#45;&gt;appcompany:id</title>
<path fill="none" stroke="#f77f00" stroke-width="1.8" d="M423.32,-446.81C456.93,-421.58 487,-399 487,-399 487,-399 491,-399 491,-399 491,-399 538.98,-427.82 579.06,-451.9"/>
<polygon fill="#f77f00" stroke="#f77f00" stroke-width="1.8" points="423.17,-446.92 412.48,-449.33 419.18,-449.92 415.18,-452.92 415.18,-452.92 415.18,-452.92 419.18,-449.92 417.88,-456.52 423.17,-446.92 423.17,-446.92"/>
<polygon fill="#f77f00" stroke="#f77f00" stroke-width="1.8" points="585.12,-449.71 579.98,-458.28 578.26,-457.25 583.41,-448.68 585.12,-449.71"/>
<polyline fill="none" stroke="#f77f00" stroke-width="1.8" points="583.41,-454.51 579.12,-451.93 "/>
<text text-anchor="middle" x="489" y="-402.8" font-family="Helvetica Neue" font-size="14.00"> </text>
<text text-anchor="middle" x="528.18" y="-392.72" font-family="Helvetica Neue" font-size="14.00">BelongsTo</text>
<text text-anchor="middle" x="528.18" y="-377.72" font-family="Helvetica Neue" font-size="14.00">company</text>
</g>
<!-- appcity&#45;&gt;appuser -->
<g id="edge4" class="edge">
<title>appcity:id&#45;&gt;appuser:city_id</title>
<path fill="none" stroke="#fcbf49" stroke-width="1.8" d="M563,-307C563,-307 491,-545 491,-545 491,-545 442.26,-585.4 422.85,-601.5"/>
<polygon fill="#fcbf49" stroke="#fcbf49" stroke-width="1.8" points="422.7,-601.62 412.13,-604.54 418.85,-604.81 415,-608 415,-608 415,-608 418.85,-604.81 417.87,-611.46 422.7,-601.62 422.7,-601.62"/>
<text text-anchor="middle" x="489" y="-550.8" font-family="Helvetica Neue" font-size="14.00"> </text>
<text text-anchor="middle" x="541.18" y="-487.17" font-family="Helvetica Neue" font-size="14.00">HasMany</text>
<text text-anchor="middle" x="541.18" y="-472.17" font-family="Helvetica Neue" font-size="14.00">users</text>
</g>
<!-- appcountry -->
<g id="node4" class="node">
<title>appcountry</title>
<polygon fill="none" stroke="black" points="993,-222 852,-222 852,0 993,0 993,-222"/>
<polygon fill="#d3d3d3" stroke="transparent" points="852.5,-185 852.5,-222 993.5,-222 993.5,-185 852.5,-185"/>
<polygon fill="none" stroke="black" points="852.5,-185 852.5,-222 993.5,-222 993.5,-185 852.5,-185"/>
<text text-anchor="start" x="901" y="-199.8" font-family="Helvetica Neue" font-size="14.00" fill="#333333">Country</text>
<polygon fill="#ffffff" stroke="transparent" points="852.5,-148 852.5,-185 993.5,-185 993.5,-148 852.5,-148"/>
<polygon fill="none" stroke="black" points="852.5,-148 852.5,-185 993.5,-185 993.5,-148 852.5,-148"/>
<text text-anchor="start" x="863.5" y="-162.8" font-family="Helvetica Neue" font-size="14.00" fill="#333333">id (bigint)</text>
<polygon fill="#ffffff" stroke="transparent" points="852.5,-111 852.5,-148 993.5,-148 993.5,-111 852.5,-111"/>
<polygon fill="none" stroke="black" points="852.5,-111 852.5,-148 993.5,-148 993.5,-111 852.5,-111"/>
<text text-anchor="start" x="863.5" y="-125.8" font-family="Helvetica Neue" font-size="14.00" fill="#333333">code (string)</text>
<polygon fill="#ffffff" stroke="transparent" points="852.5,-74 852.5,-111 993.5,-111 993.5,-74 852.5,-74"/>
<polygon fill="none" stroke="black" points="852.5,-74 852.5,-111 993.5,-111 993.5,-74 852.5,-74"/>
<text text-anchor="start" x="863.5" y="-88.8" font-family="Helvetica Neue" font-size="14.00" fill="#333333">name (string)</text>
<polygon fill="#ffffff" stroke="transparent" points="852.5,-37 852.5,-74 993.5,-74 993.5,-37 852.5,-37"/>
<polygon fill="none" stroke="black" points="852.5,-37 852.5,-74 993.5,-74 993.5,-37 852.5,-37"/>
<text text-anchor="start" x="863.5" y="-51.8" font-family="Helvetica Neue" font-size="14.00" fill="#333333">created_at (datetime)</text>
<polygon fill="#ffffff" stroke="transparent" points="852.5,0 852.5,-37 993.5,-37 993.5,0 852.5,0"/>
<polygon fill="none" stroke="black" points="852.5,0 852.5,-37 993.5,-37 993.5,0 852.5,0"/>
<text text-anchor="start" x="863.5" y="-14.8" font-family="Helvetica Neue" font-size="14.00" fill="#333333">updated_at (datetime)</text>
</g>
<!-- appcity&#45;&gt;appcountry -->
<g id="edge3" class="edge">
<title>appcity:country_id&#45;&gt;appcountry:id</title>
<path fill="none" stroke="#f77f00" stroke-width="1.8" d="M714.01,-270.7C733.79,-272.07 776,-275 776,-275 776,-275 780,-275 780,-275 780,-275 835.62,-191.57 849.09,-171.37"/>
<polygon fill="#f77f00" stroke="#f77f00" stroke-width="1.8" points="713.98,-270.69 704.31,-265.51 708.99,-270.35 704,-270 704,-270 704,-270 708.99,-270.35 703.69,-274.49 713.98,-270.69 713.98,-270.69"/>
<polygon fill="#f77f00" stroke="#f77f00" stroke-width="1.8" points="847.29,-165.06 855.61,-170.61 854.5,-172.27 846.18,-166.72 847.29,-165.06"/>
<polyline fill="none" stroke="#f77f00" stroke-width="1.8" points="852,-167 849.23,-171.16 "/>
<text text-anchor="middle" x="778" y="-278.8" font-family="Helvetica Neue" font-size="14.00"> </text>
<text text-anchor="middle" x="767.2" y="-239.5" font-family="Helvetica Neue" font-size="14.00">BelongsTo</text>
<text text-anchor="middle" x="767.2" y="-224.5" font-family="Helvetica Neue" font-size="14.00">country</text>
</g>
<!-- appcity&#45;&gt;apppost -->
<g id="edge5" class="edge">
<title>appcity&#45;&gt;apppost</title>
<path fill="none" stroke="#003049" stroke-width="1.8" d="M704.27,-252.44C741.61,-253.21 780,-254 780,-254 780,-254 866.19,-550.02 904.03,-680.01"/>
<polygon fill="#003049" stroke="#003049" stroke-width="1.8" points="900.73,-681.2 906.89,-689.82 907.45,-679.24 900.73,-681.2"/>
<text text-anchor="middle" x="778" y="-257.8" font-family="Helvetica Neue" font-size="14.00"> </text>
<text text-anchor="middle" x="781.43" y="-419.44" font-family="Helvetica Neue" font-size="14.00">HasManyThrough</text>
<text text-anchor="middle" x="781.43" y="-404.44" font-family="Helvetica Neue" font-size="14.00">posts</text>
</g>
<!-- appcountry&#45;&gt;appuser -->
<g id="edge11" class="edge">
<title>appcountry&#45;&gt;appuser</title>
<path fill="none" stroke="#003049" stroke-width="1.8" d="M851.78,-103.95C788.17,-97.51 704,-89 704,-89 704,-89 563,-89 563,-89 563,-89 485.15,-232.88 419.94,-353.41"/>
<polygon fill="#003049" stroke="#003049" stroke-width="1.8" points="416.75,-351.95 415.06,-362.41 422.9,-355.28 416.75,-351.95"/>
<text text-anchor="middle" x="633.5" y="-92.8" font-family="Helvetica Neue" font-size="14.00"> </text>
<text text-anchor="middle" x="510.36" y="-82.68" font-family="Helvetica Neue" font-size="14.00">HasManyThrough</text>
<text text-anchor="middle" x="510.36" y="-67.68" font-family="Helvetica Neue" font-size="14.00">users</text>
</g>
<!-- appcountry&#45;&gt;appcity -->
<g id="edge10" class="edge">
<title>appcountry:id&#45;&gt;appcity:country_id</title>
<path fill="none" stroke="#fcbf49" stroke-width="1.8" d="M852,-167C852,-167 780,-162 780,-162 780,-162 776,-162 776,-162 776,-162 726.62,-236.07 709.65,-261.53"/>
<polygon fill="#fcbf49" stroke="#fcbf49" stroke-width="1.8" points="709.55,-261.68 700.26,-267.5 706.77,-265.84 704,-270 704,-270 704,-270 706.77,-265.84 707.74,-272.5 709.55,-261.68 709.55,-261.68"/>
<text text-anchor="middle" x="778" y="-165.8" font-family="Helvetica Neue" font-size="14.00"> </text>
<text text-anchor="middle" x="736.95" y="-168.87" font-family="Helvetica Neue" font-size="14.00">HasMany</text>
<text text-anchor="middle" x="736.95" y="-153.87" font-family="Helvetica Neue" font-size="14.00">cities</text>
</g>
<!-- apppost&#45;&gt;appuser -->
<g id="edge12" class="edge">
<title>apppost:user_id&#45;&gt;appuser:id</title>
<path fill="none" stroke="#f77f00" stroke-width="1.8" d="M862.42,-728.92C738.72,-705.72 460.55,-653.54 419.97,-645.93"/>
<polygon fill="#f77f00" stroke="#f77f00" stroke-width="1.8" points="862.65,-728.96 871.64,-735.23 867.56,-729.88 872.47,-730.8 872.47,-730.8 872.47,-730.8 867.56,-729.88 873.3,-726.38 862.65,-728.96 862.65,-728.96"/>
<polygon fill="#f77f00" stroke="#f77f00" stroke-width="1.8" points="415.06,-650.1 416.9,-640.27 418.87,-640.64 417.03,-650.47 415.06,-650.1"/>
<polyline fill="none" stroke="#f77f00" stroke-width="1.8" points="415,-645 419.91,-645.92 "/>
<text text-anchor="middle" x="633.5" y="-701.8" font-family="Helvetica Neue" font-size="14.00"> </text>
<text text-anchor="middle" x="612.2" y="-676.23" font-family="Helvetica Neue" font-size="14.00">BelongsTo</text>
<text text-anchor="middle" x="612.2" y="-661.23" font-family="Helvetica Neue" font-size="14.00">user</text>
</g>
<!-- apppost&#45;&gt;appcomment -->
<g id="edge13" class="edge">
<title>apppost:id&#45;&gt;appcomment:post_id</title>
<path fill="none" stroke="#fcbf49" stroke-width="1.8" d="M972.76,-760.65C1014.97,-778.35 1069,-801 1069,-801 1069,-801 1101.81,-831.64 1133.26,-861.02"/>
<polygon fill="#fcbf49" stroke="#fcbf49" stroke-width="1.8" points="1133.48,-861.21 1137.71,-871.33 1137.13,-864.63 1140.78,-868.04 1140.78,-868.04 1140.78,-868.04 1137.13,-864.63 1143.86,-864.75 1133.48,-861.21 1133.48,-861.21"/>
<text text-anchor="middle" x="1067" y="-804.8" font-family="Helvetica Neue" font-size="14.00"> </text>
<text text-anchor="middle" x="1030.93" y="-786.62" font-family="Helvetica Neue" font-size="14.00">HasMany</text>
<text text-anchor="middle" x="1030.93" y="-771.62" font-family="Helvetica Neue" font-size="14.00">comments</text>
</g>
<!-- appcomment&#45;&gt;appuser -->
<g id="edge6" class="edge">
<title>appcomment:user_id&#45;&gt;appuser:id</title>
<path fill="none" stroke="#f77f00" stroke-width="1.8" d="M1130.89,-902.03C974.71,-870.39 563,-787 563,-787 563,-787 487,-768 487,-768 487,-768 430.39,-671.29 417.56,-649.38"/>
<polygon fill="#f77f00" stroke="#f77f00" stroke-width="1.8" points="1131,-902.05 1139.91,-908.44 1135.9,-903.04 1140.8,-904.03 1140.8,-904.03 1140.8,-904.03 1135.9,-903.04 1141.69,-899.62 1131,-902.05 1131,-902.05"/>
<polygon fill="#f77f00" stroke="#f77f00" stroke-width="1.8" points="411.19,-648.39 419.82,-643.34 420.83,-645.06 412.2,-650.11 411.19,-648.39"/>
<polyline fill="none" stroke="#f77f00" stroke-width="1.8" points="415,-645 417.53,-649.32 "/>
<text text-anchor="middle" x="778" y="-833.8" font-family="Helvetica Neue" font-size="14.00"> </text>
<text text-anchor="middle" x="712.2" y="-811.89" font-family="Helvetica Neue" font-size="14.00">BelongsTo</text>
<text text-anchor="middle" x="712.2" y="-796.89" font-family="Helvetica Neue" font-size="14.00">user</text>
</g>
<!-- appcomment&#45;&gt;apppost -->
<g id="edge7" class="edge">
<title>appcomment:post_id&#45;&gt;apppost:id</title>
<path fill="none" stroke="#f77f00" stroke-width="1.8" d="M1132.25,-876.29C1086.1,-846.16 1021.93,-804.27 976.96,-774.9"/>
<polygon fill="#f77f00" stroke="#f77f00" stroke-width="1.8" points="1132.27,-876.31 1138.18,-885.54 1136.46,-879.04 1140.65,-881.78 1140.65,-881.78 1140.65,-881.78 1136.46,-879.04 1143.11,-878.01 1132.27,-876.31 1132.27,-876.31"/>
<polygon fill="#f77f00" stroke="#f77f00" stroke-width="1.8" points="970.79,-776.85 976.26,-768.48 977.94,-769.57 972.47,-777.94 970.79,-776.85"/>
<polyline fill="none" stroke="#f77f00" stroke-width="1.8" points="972.69,-772.12 976.88,-774.85 "/>
<text text-anchor="middle" x="1067" y="-837.8" font-family="Helvetica Neue" font-size="14.00"> </text>
<text text-anchor="middle" x="1025.6" y="-844.4" font-family="Helvetica Neue" font-size="14.00">BelongsTo</text>
<text text-anchor="middle" x="1025.6" y="-829.4" font-family="Helvetica Neue" font-size="14.00">post</text>
</g>
<!-- appcompany&#45;&gt;appuser -->
<g id="edge8" class="edge">
<title>appcompany:id&#45;&gt;appuser:company_id</title>
<path fill="none" stroke="#fcbf49" stroke-width="1.8" d="M583.41,-465.96C542.54,-450.94 491,-432 491,-432 491,-432 487,-432 487,-432 487,-432 457.43,-447.88 424.17,-465.76"/>
<polygon fill="#fcbf49" stroke="#fcbf49" stroke-width="1.8" points="423.99,-465.85 413.05,-466.62 419.58,-468.22 415.18,-470.58 415.18,-470.58 415.18,-470.58 419.58,-468.22 417.31,-474.55 423.99,-465.85 423.99,-465.85"/>
<text text-anchor="middle" x="489" y="-435.8" font-family="Helvetica Neue" font-size="14.00"> </text>
<text text-anchor="middle" x="474.85" y="-424.79" font-family="Helvetica Neue" font-size="14.00">HasMany</text>
<text text-anchor="middle" x="474.85" y="-409.79" font-family="Helvetica Neue" font-size="14.00">users</text>
</g>
<!-- appcompany&#45;&gt;apppost -->
<g id="edge9" class="edge">
<title>appcompany&#45;&gt;apppost</title>
<path fill="none" stroke="#003049" stroke-width="1.8" d="M683.76,-525.98C725.97,-561.95 780,-608 780,-608 780,-608 825.3,-650.26 864.63,-686.95"/>
<polygon fill="#003049" stroke="#003049" stroke-width="1.8" points="862.71,-689.94 872.41,-694.2 867.48,-684.82 862.71,-689.94"/>
<text text-anchor="middle" x="778" y="-611.8" font-family="Helvetica Neue" font-size="14.00"> </text>
<text text-anchor="middle" x="725.93" y="-593.33" font-family="Helvetica Neue" font-size="14.00">HasManyThrough</text>
<text text-anchor="middle" x="725.93" y="-578.33" font-family="Helvetica Neue" font-size="14.00">posts</text>
</g>
</g>
</svg>
