<?xml version="1.0" encoding="UTF-8" standalone="no"?>
<!DOCTYPE svg PUBLIC "-//W3C//DTD SVG 1.1//EN"
 "http://www.w3.org/Graphics/SVG/1.1/DTD/svg11.dtd">
<!-- Generated by graphviz version 2.44.0 (20200408.0750)
 -->
<!-- Title: G Pages: 1 -->
<svg width="1561pt" height="1235pt"
 viewBox="0.00 0.00 1561.00 1235.00" xmlns="http://www.w3.org/2000/svg" xmlns:xlink="http://www.w3.org/1999/xlink">
<g id="graph0" class="graph" transform="scale(1 1) rotate(0) translate(36 1199)">
<title>G</title>
<polygon fill="#f7f7f7" stroke="transparent" points="-36,36 -36,-1199 1525,-1199 1525,36 -36,36"/>
<!-- appaddress -->
<g id="node1" class="node">
<title>appaddress</title>
<polygon fill="none" stroke="black" points="100,-683 0,-683 0,-583 100,-583 100,-683"/>
<polygon fill="#d3d3d3" stroke="transparent" points="0,-646 0,-683 100,-683 100,-646 0,-646"/>
<polygon fill="none" stroke="black" points="0,-646 0,-683 100,-683 100,-646 0,-646"/>
<text text-anchor="start" x="26" y="-660.8" font-family="Helvetica Neue" font-size="14.00" fill="#333333">Address</text>
</g>
<!-- appuser -->
<g id="node2" class="node">
<title>appuser</title>
<polygon fill="none" stroke="black" points="415,-780 248,-780 248,-410 415,-410 415,-780"/>
<polygon fill="#d3d3d3" stroke="transparent" points="248.5,-743 248.5,-780 415.5,-780 415.5,-743 248.5,-743"/>
<polygon fill="none" stroke="black" points="248.5,-743 248.5,-780 415.5,-780 415.5,-743 248.5,-743"/>
<text text-anchor="start" x="318.5" y="-757.8" font-family="Helvetica Neue" font-size="14.00" fill="#333333">User</text>
<polygon fill="#ffffff" stroke="transparent" points="248.5,-706 248.5,-743 415.5,-743 415.5,-706 248.5,-706"/>
<polygon fill="none" stroke="black" points="248.5,-706 248.5,-743 415.5,-743 415.5,-706 248.5,-706"/>
<text text-anchor="start" x="259.5" y="-720.8" font-family="Helvetica Neue" font-size="14.00" fill="#333333">id (bigint)</text>
<polygon fill="#ffffff" stroke="transparent" points="248.5,-669 248.5,-706 415.5,-706 415.5,-669 248.5,-669"/>
<polygon fill="none" stroke="black" points="248.5,-669 248.5,-706 415.5,-706 415.5,-669 248.5,-669"/>
<text text-anchor="start" x="259.5" y="-683.8" font-family="Helvetica Neue" font-size="14.00" fill="#333333">city_id (bigint)</text>
<polygon fill="#ffffff" stroke="transparent" points="248.5,-632 248.5,-669 415.5,-669 415.5,-632 248.5,-632"/>
<polygon fill="none" stroke="black" points="248.5,-632 248.5,-669 415.5,-669 415.5,-632 248.5,-632"/>
<text text-anchor="start" x="259.5" y="-646.8" font-family="Helvetica Neue" font-size="14.00" fill="#333333">name (string)</text>
<polygon fill="#ffffff" stroke="transparent" points="248.5,-595 248.5,-632 415.5,-632 415.5,-595 248.5,-595"/>
<polygon fill="none" stroke="black" points="248.5,-595 248.5,-632 415.5,-632 415.5,-595 248.5,-595"/>
<text text-anchor="start" x="259.5" y="-609.8" font-family="Helvetica Neue" font-size="14.00" fill="#333333">email (string)</text>
<polygon fill="#ffffff" stroke="transparent" points="248.5,-558 248.5,-595 415.5,-595 415.5,-558 248.5,-558"/>
<polygon fill="none" stroke="black" points="248.5,-558 248.5,-595 415.5,-595 415.5,-558 248.5,-558"/>
<text text-anchor="start" x="259.5" y="-572.8" font-family="Helvetica Neue" font-size="14.00" fill="#333333">email_verified_at (datetime)</text>
<polygon fill="#ffffff" stroke="transparent" points="248.5,-521 248.5,-558 415.5,-558 415.5,-521 248.5,-521"/>
<polygon fill="none" stroke="black" points="248.5,-521 248.5,-558 415.5,-558 415.5,-521 248.5,-521"/>
<text text-anchor="start" x="259.5" y="-535.8" font-family="Helvetica Neue" font-size="14.00" fill="#333333">password (string)</text>
<polygon fill="#ffffff" stroke="transparent" points="248.5,-484 248.5,-521 415.5,-521 415.5,-484 248.5,-484"/>
<polygon fill="none" stroke="black" points="248.5,-484 248.5,-521 415.5,-521 415.5,-484 248.5,-484"/>
<text text-anchor="start" x="259.5" y="-498.8" font-family="Helvetica Neue" font-size="14.00" fill="#333333">remember_token (string)</text>
<polygon fill="#ffffff" stroke="transparent" points="248.5,-447 248.5,-484 415.5,-484 415.5,-447 248.5,-447"/>
<polygon fill="none" stroke="black" points="248.5,-447 248.5,-484 415.5,-484 415.5,-447 248.5,-447"/>
<text text-anchor="start" x="259.5" y="-461.8" font-family="Helvetica Neue" font-size="14.00" fill="#333333">created_at (datetime)</text>
<polygon fill="#ffffff" stroke="transparent" points="248.5,-410 248.5,-447 415.5,-447 415.5,-410 248.5,-410"/>
<polygon fill="none" stroke="black" points="248.5,-410 248.5,-447 415.5,-447 415.5,-410 248.5,-410"/>
<text text-anchor="start" x="259.5" y="-424.8" font-family="Helvetica Neue" font-size="14.00" fill="#333333">updated_at (datetime)</text>
</g>
<!-- appaddress&#45;&gt;appuser -->
<g id="edge1" class="edge">
<title>appaddress:user_id&#45;&gt;appuser:id</title>
<path fill="none" stroke="#f77f00" stroke-width="1.8" d="M109.32,-660.23C158.78,-683.34 224.57,-714.06 243.01,-722.67"/>
<polygon fill="#f77f00" stroke="#f77f00" stroke-width="1.8" points="109.26,-660.21 102.11,-651.9 104.73,-658.09 100.2,-655.98 100.2,-655.98 100.2,-655.98 104.73,-658.09 98.3,-660.06 109.26,-660.21 109.26,-660.21"/>
<polygon fill="#f77f00" stroke="#f77f00" stroke-width="1.8" points="249.21,-720.05 244.98,-729.11 243.17,-728.26 247.4,-719.2 249.21,-720.05"/>
<polyline fill="none" stroke="#f77f00" stroke-width="1.8" points="248,-725 243.47,-722.88 "/>
<text text-anchor="middle" x="174" y="-692.8" font-family="Helvetica Neue" font-size="14.00"> </text>
<text text-anchor="middle" x="205.16" y="-710.25" font-family="Helvetica Neue" font-size="14.00">BelongsTo</text>
<text text-anchor="middle" x="205.16" y="-695.25" font-family="Helvetica Neue" font-size="14.00">user</text>
</g>
<!-- appcity -->
<g id="node3" class="node">
<title>appcity</title>
<polygon fill="none" stroke="black" points="704,-553 563,-553 563,-331 704,-331 704,-553"/>
<polygon fill="#d3d3d3" stroke="transparent" points="563.5,-516 563.5,-553 704.5,-553 704.5,-516 563.5,-516"/>
<polygon fill="none" stroke="black" points="563.5,-516 563.5,-553 704.5,-553 704.5,-516 563.5,-516"/>
<text text-anchor="start" x="623.5" y="-530.8" font-family="Helvetica Neue" font-size="14.00" fill="#333333">City</text>
<polygon fill="#ffffff" stroke="transparent" points="563.5,-479 563.5,-516 704.5,-516 704.5,-479 563.5,-479"/>
<polygon fill="none" stroke="black" points="563.5,-479 563.5,-516 704.5,-516 704.5,-479 563.5,-479"/>
<text text-anchor="start" x="574.5" y="-493.8" font-family="Helvetica Neue" font-size="14.00" fill="#333333">id (bigint)</text>
<polygon fill="#ffffff" stroke="transparent" points="563.5,-442 563.5,-479 704.5,-479 704.5,-442 563.5,-442"/>
<polygon fill="none" stroke="black" points="563.5,-442 563.5,-479 704.5,-479 704.5,-442 563.5,-442"/>
<text text-anchor="start" x="574.5" y="-456.8" font-family="Helvetica Neue" font-size="14.00" fill="#333333">country_id (bigint)</text>
<polygon fill="#ffffff" stroke="transparent" points="563.5,-405 563.5,-442 704.5,-442 704.5,-405 563.5,-405"/>
<polygon fill="none" stroke="black" points="563.5,-405 563.5,-442 704.5,-442 704.5,-405 563.5,-405"/>
<text text-anchor="start" x="574.5" y="-419.8" font-family="Helvetica Neue" font-size="14.00" fill="#333333">name (string)</text>
<polygon fill="#ffffff" stroke="transparent" points="563.5,-368 563.5,-405 704.5,-405 704.5,-368 563.5,-368"/>
<polygon fill="none" stroke="black" points="563.5,-368 563.5,-405 704.5,-405 704.5,-368 563.5,-368"/>
<text text-anchor="start" x="574.5" y="-382.8" font-family="Helvetica Neue" font-size="14.00" fill="#333333">created_at (datetime)</text>
<polygon fill="#ffffff" stroke="transparent" points="563.5,-331 563.5,-368 704.5,-368 704.5,-331 563.5,-331"/>
<polygon fill="none" stroke="black" points="563.5,-331 563.5,-368 704.5,-368 704.5,-331 563.5,-331"/>
<text text-anchor="start" x="574.5" y="-345.8" font-family="Helvetica Neue" font-size="14.00" fill="#333333">updated_at (datetime)</text>
</g>
<!-- appaddress&#45;&gt;appcity -->
<g id="edge2" class="edge">
<title>appaddress:city_id&#45;&gt;appcity:id</title>
<path fill="none" stroke="#f77f00" stroke-width="1.8" d="M93.3,-574.17C151.19,-493.65 248,-359 248,-359 248,-359 415,-359 415,-359 415,-359 536.55,-473.16 559.34,-494.56"/>
<polygon fill="#f77f00" stroke="#f77f00" stroke-width="1.8" points="92.97,-574.62 83.48,-580.12 90.05,-578.68 87.13,-582.74 87.13,-582.74 87.13,-582.74 90.05,-578.68 90.79,-585.37 92.97,-574.62 92.97,-574.62"/>
<polygon fill="#f77f00" stroke="#f77f00" stroke-width="1.8" points="565.69,-493.67 558.85,-500.96 557.39,-499.59 564.24,-492.3 565.69,-493.67"/>
<polyline fill="none" stroke="#f77f00" stroke-width="1.8" points="563,-498 559.36,-494.58 "/>
<text text-anchor="middle" x="331.5" y="-362.8" font-family="Helvetica Neue" font-size="14.00"> </text>
<text text-anchor="middle" x="269.01" y="-347.8" font-family="Helvetica Neue" font-size="14.00">BelongsTo</text>
<text text-anchor="middle" x="269.01" y="-332.8" font-family="Helvetica Neue" font-size="14.00">city</text>
</g>
<!-- appuser&#45;&gt;appaddress -->
<g id="edge18" class="edge">
<title>appuser:id&#45;&gt;appaddress:user_id</title>
<path fill="none" stroke="#d62828" stroke-width="1.8" d="M248,-725C248,-725 176,-656 176,-656 176,-656 138.81,-649.16 105,-642.94"/>
<polygon fill="#d62828" stroke="#d62828" stroke-width="1.8" points="100.12,-647.12 101.93,-637.29 103.9,-637.65 102.09,-647.48 100.12,-647.12"/>
<polyline fill="none" stroke="#d62828" stroke-width="1.8" points="100.04,-642.02 104.96,-642.93 "/>
<text text-anchor="middle" x="174" y="-659.8" font-family="Helvetica Neue" font-size="14.00"> </text>
<text text-anchor="middle" x="208.94" y="-654.33" font-family="Helvetica Neue" font-size="14.00">HasOne</text>
<text text-anchor="middle" x="208.94" y="-639.33" font-family="Helvetica Neue" font-size="14.00">address</text>
</g>
<!-- appuser&#45;&gt;appcity -->
<g id="edge17" class="edge">
<title>appuser:city_id&#45;&gt;appcity:id</title>
<path fill="none" stroke="#f77f00" stroke-width="1.8" d="M419.95,-679.2C436.22,-650.28 487,-560 487,-560 487,-560 543.13,-514.21 558.91,-501.33"/>
<polygon fill="#f77f00" stroke="#f77f00" stroke-width="1.8" points="419.9,-679.28 411.08,-685.79 417.45,-683.64 415,-688 415,-688 415,-688 417.45,-683.64 418.92,-690.21 419.9,-679.28 419.9,-679.28"/>
<polygon fill="#f77f00" stroke="#f77f00" stroke-width="1.8" points="559.06,-494.76 565.39,-502.51 563.84,-503.77 557.51,-496.02 559.06,-494.76"/>
<polyline fill="none" stroke="#f77f00" stroke-width="1.8" points="563,-498 559.13,-501.16 "/>
<text text-anchor="middle" x="489" y="-563.8" font-family="Helvetica Neue" font-size="14.00"> </text>
<text text-anchor="middle" x="447.22" y="-567.96" font-family="Helvetica Neue" font-size="14.00">BelongsTo</text>
<text text-anchor="middle" x="447.22" y="-552.96" font-family="Helvetica Neue" font-size="14.00">city</text>
</g>
<!-- apppost -->
<g id="node5" class="node">
<title>apppost</title>
<polygon fill="none" stroke="black" points="1241,-650 1141,-650 1141,-550 1241,-550 1241,-650"/>
<polygon fill="#d3d3d3" stroke="transparent" points="1141,-613 1141,-650 1241,-650 1241,-613 1141,-613"/>
<polygon fill="none" stroke="black" points="1141,-613 1141,-650 1241,-650 1241,-613 1141,-613"/>
<text text-anchor="start" x="1178" y="-627.8" font-family="Helvetica Neue" font-size="14.00" fill="#333333">Post</text>
</g>
<!-- appuser&#45;&gt;apppost -->
<g id="edge19" class="edge">
<title>appuser:id&#45;&gt;apppost:user_id</title>
<path fill="none" stroke="#fcbf49" stroke-width="1.8" d="M415,-725C415,-725 487,-767 487,-767 487,-767 491,-767 491,-767 491,-767 704,-744 704,-744 704,-744 993,-698 993,-698 993,-698 1069,-674 1069,-674 1069,-674 1100.99,-654.44 1132.07,-635.43"/>
<polygon fill="#fcbf49" stroke="#fcbf49" stroke-width="1.8" points="1132.25,-635.32 1143.13,-633.94 1136.52,-632.71 1140.78,-630.1 1140.78,-630.1 1140.78,-630.1 1136.52,-632.71 1138.44,-626.26 1132.25,-635.32 1132.25,-635.32"/>
<text text-anchor="middle" x="778" y="-735.8" font-family="Helvetica Neue" font-size="14.00"> </text>
<text text-anchor="middle" x="748.44" y="-721.43" font-family="Helvetica Neue" font-size="14.00">HasMany</text>
<text text-anchor="middle" x="748.44" y="-706.43" font-family="Helvetica Neue" font-size="14.00">posts</text>
</g>
<!-- appcomment -->
<g id="node6" class="node">
<title>appcomment</title>
<polygon fill="none" stroke="black" points="1489,-742 1389,-742 1389,-642 1489,-642 1489,-742"/>
<polygon fill="#d3d3d3" stroke="transparent" points="1389,-705 1389,-742 1489,-742 1489,-705 1389,-705"/>
<polygon fill="none" stroke="black" points="1389,-705 1389,-742 1489,-742 1489,-705 1389,-705"/>
<text text-anchor="start" x="1410.5" y="-719.8" font-family="Helvetica Neue" font-size="14.00" fill="#333333">Comment</text>
</g>
<!-- appuser&#45;&gt;appcomment -->
<g id="edge20" class="edge">
<title>appuser:id&#45;&gt;appcomment:user_id</title>
<path fill="none" stroke="#fcbf49" stroke-width="1.8" d="M415,-725C415,-725 487,-878 487,-878 487,-878 632.5,-1148 632.5,-1148 632.5,-1148 632.5,-1148 1192,-1148 1192,-1148 1339.59,-874.42 1406.13,-751.08"/>
<polygon fill="#fcbf49" stroke="#fcbf49" stroke-width="1.8" points="1406.22,-750.91 1414.93,-744.24 1408.6,-746.5 1410.97,-742.1 1410.97,-742.1 1410.97,-742.1 1408.6,-746.5 1407.01,-739.97 1406.22,-750.91 1406.22,-750.91"/>
<text text-anchor="middle" x="922.5" y="-1151.8" font-family="Helvetica Neue" font-size="14.00"> </text>
<text text-anchor="middle" x="869.35" y="-1136.8" font-family="Helvetica Neue" font-size="14.00">HasMany</text>
<text text-anchor="middle" x="869.35" y="-1121.8" font-family="Helvetica Neue" font-size="14.00">comments</text>
</g>
<!-- appcompany -->
<g id="node7" class="node">
<title>appcompany</title>
<polygon fill="none" stroke="black" points="683.5,-100 583.5,-100 583.5,0 683.5,0 683.5,-100"/>
<polygon fill="#d3d3d3" stroke="transparent" points="583.5,-63 583.5,-100 683.5,-100 683.5,-63 583.5,-63"/>
<polygon fill="none" stroke="black" points="583.5,-63 583.5,-100 683.5,-100 683.5,-63 583.5,-63"/>
<text text-anchor="start" x="605.5" y="-77.8" font-family="Helvetica Neue" font-size="14.00" fill="#333333">Company</text>
</g>
<!-- appuser&#45;&gt;appcompany -->
<g id="edge16" class="edge">
<title>appuser:company_id&#45;&gt;appcompany:id</title>
<path fill="none" stroke="#f77f00" stroke-width="1.8" d="M399.7,-400.33C408.75,-374.1 415,-356 415,-356 415,-356 487,-139 487,-139 487,-139 537.3,-108.23 578.75,-82.88"/>
<polygon fill="#f77f00" stroke="#f77f00" stroke-width="1.8" points="399.65,-400.48 392.13,-408.47 398.01,-405.21 396.38,-409.93 396.38,-409.93 396.38,-409.93 398.01,-405.21 400.64,-411.4 399.65,-400.48 399.65,-400.48"/>
<polygon fill="#f77f00" stroke="#f77f00" stroke-width="1.8" points="579.78,-76.39 585,-84.92 583.29,-85.96 578.07,-77.43 579.78,-76.39"/>
<polyline fill="none" stroke="#f77f00" stroke-width="1.8" points="583.24,-80.13 578.98,-82.74 "/>
<text text-anchor="middle" x="489" y="-142.8" font-family="Helvetica Neue" font-size="14.00"> </text>
<text text-anchor="middle" x="431.55" y="-207.52" font-family="Helvetica Neue" font-size="14.00">BelongsTo</text>
<text text-anchor="middle" x="431.55" y="-192.52" font-family="Helvetica Neue" font-size="14.00">company</text>
</g>
<!-- appcity&#45;&gt;appuser -->
<g id="edge4" class="edge">
<title>appcity:id&#45;&gt;appuser:city_id</title>
<path fill="none" stroke="#fcbf49" stroke-width="1.8" d="M563,-498C563,-498 449.69,-643.47 421.36,-679.84"/>
<polygon fill="#fcbf49" stroke="#fcbf49" stroke-width="1.8" points="421.15,-680.11 411.45,-685.23 418.07,-684.06 415,-688 415,-688 415,-688 418.07,-684.06 418.55,-690.77 421.15,-680.11 421.15,-680.11"/>
<text text-anchor="middle" x="489" y="-596.8" font-family="Helvetica Neue" font-size="14.00"> </text>
<text text-anchor="middle" x="519.18" y="-577.72" font-family="Helvetica Neue" font-size="14.00">HasMany</text>
<text text-anchor="middle" x="519.18" y="-562.72" font-family="Helvetica Neue" font-size="14.00">users</text>
</g>
<!-- appcountry -->
<g id="node4" class="node">
<title>appcountry</title>
<polygon fill="none" stroke="black" points="993,-394 852,-394 852,-172 993,-172 993,-394"/>
<polygon fill="#d3d3d3" stroke="transparent" points="852.5,-357 852.5,-394 993.5,-394 993.5,-357 852.5,-357"/>
<polygon fill="none" stroke="black" points="852.5,-357 852.5,-394 993.5,-394 993.5,-357 852.5,-357"/>
<text text-anchor="start" x="901" y="-371.8" font-family="Helvetica Neue" font-size="14.00" fill="#333333">Country</text>
<polygon fill="#ffffff" stroke="transparent" points="852.5,-320 852.5,-357 993.5,-357 993.5,-320 852.5,-320"/>
<polygon fill="none" stroke="black" points="852.5,-320 852.5,-357 993.5,-357 993.5,-320 852.5,-320"/>
<text text-anchor="start" x="863.5" y="-334.8" font-family="Helvetica Neue" font-size="14.00" fill="#333333">id (bigint)</text>
<polygon fill="#ffffff" stroke="transparent" points="852.5,-283 852.5,-320 993.5,-320 993.5,-283 852.5,-283"/>
<polygon fill="none" stroke="black" points="852.5,-283 852.5,-320 993.5,-320 993.5,-283 852.5,-283"/>
<text text-anchor="start" x="863.5" y="-297.8" font-family="Helvetica Neue" font-size="14.00" fill="#333333">code (string)</text>
<polygon fill="#ffffff" stroke="transparent" points="852.5,-246 852.5,-283 993.5,-283 993.5,-246 852.5,-246"/>
<polygon fill="none" stroke="black" points="852.5,-246 852.5,-283 993.5,-283 993.5,-246 852.5,-246"/>
<text text-anchor="start" x="863.5" y="-260.8" font-family="Helvetica Neue" font-size="14.00" fill="#333333">name (string)</text>
<polygon fill="#ffffff" stroke="transparent" points="852.5,-209 852.5,-246 993.5,-246 993.5,-209 852.5,-209"/>
<polygon fill="none" stroke="black" points="852.5,-209 852.5,-246 993.5,-246 993.5,-209 852.5,-209"/>
<text text-anchor="start" x="863.5" y="-223.8" font-family="Helvetica Neue" font-size="14.00" fill="#333333">created_at (datetime)</text>
<polygon fill="#ffffff" stroke="transparent" points="852.5,-172 852.5,-209 993.5,-209 993.5,-172 852.5,-172"/>
<polygon fill="none" stroke="black" points="852.5,-172 852.5,-209 993.5,-209 993.5,-172 852.5,-172"/>
<text text-anchor="start" x="863.5" y="-186.8" font-family="Helvetica Neue" font-size="14.00" fill="#333333">updated_at (datetime)</text>
</g>
<!-- appcity&#45;&gt;appcountry -->
<g id="edge3" class="edge">
<title>appcity:country_id&#45;&gt;appcountry:id</title>
<path fill="none" stroke="#f77f00" stroke-width="1.8" d="M711.96,-454.44C739.22,-431.97 828.24,-358.58 848.07,-342.24"/>
<polygon fill="#f77f00" stroke="#f77f00" stroke-width="1.8" points="711.72,-454.64 701.14,-457.53 707.86,-457.82 704,-461 704,-461 704,-461 707.86,-457.82 706.86,-464.47 711.72,-454.64 711.72,-454.64"/>
<polygon fill="#f77f00" stroke="#f77f00" stroke-width="1.8" points="848.05,-335.78 854.41,-343.49 852.87,-344.77 846.5,-337.05 848.05,-335.78"/>
<polyline fill="none" stroke="#f77f00" stroke-width="1.8" points="852,-339 848.14,-342.18 "/>
<text text-anchor="middle" x="778" y="-403.8" font-family="Helvetica Neue" font-size="14.00"> </text>
<text text-anchor="middle" x="809.01" y="-387.14" font-family="Helvetica Neue" font-size="14.00">BelongsTo</text>
<text text-anchor="middle" x="809.01" y="-372.14" font-family="Helvetica Neue" font-size="14.00">country</text>
</g>
<!-- appcity&#45;&gt;apppost -->
<g id="edge5" class="edge">
<title>appcity&#45;&gt;apppost</title>
<path fill="none" stroke="#003049" stroke-width="1.8" d="M704.01,-461.77C814.42,-493.18 1027.93,-553.9 1131.21,-583.28"/>
<polygon fill="#003049" stroke="#003049" stroke-width="1.8" points="1130.28,-586.65 1140.85,-586.02 1132.19,-579.92 1130.28,-586.65"/>
<text text-anchor="middle" x="922.5" y="-546.8" font-family="Helvetica Neue" font-size="14.00"> </text>
<text text-anchor="middle" x="867.61" y="-511.32" font-family="Helvetica Neue" font-size="14.00">HasManyThrough</text>
<text text-anchor="middle" x="867.61" y="-496.32" font-family="Helvetica Neue" font-size="14.00">posts</text>
</g>
<!-- appcountry&#45;&gt;appuser -->
<g id="edge11" class="edge">
<title>appcountry&#45;&gt;appuser</title>
<path fill="none" stroke="#003049" stroke-width="1.8" d="M851.78,-282.04C788.17,-281.16 704,-280 704,-280 704,-280 563,-280 563,-280 563,-280 486.08,-385.12 421.11,-473.9"/>
<polygon fill="#003049" stroke="#003049" stroke-width="1.8" points="418.15,-472.03 415.06,-482.17 423.79,-476.16 418.15,-472.03"/>
<text text-anchor="middle" x="633.5" y="-283.8" font-family="Helvetica Neue" font-size="14.00"> </text>
<text text-anchor="middle" x="537.26" y="-268.8" font-family="Helvetica Neue" font-size="14.00">HasManyThrough</text>
<text text-anchor="middle" x="537.26" y="-253.8" font-family="Helvetica Neue" font-size="14.00">users</text>
</g>
<!-- appcountry&#45;&gt;appcity -->
<g id="edge10" class="edge">
<title>appcountry:id&#45;&gt;appcity:country_id</title>
<path fill="none" stroke="#fcbf49" stroke-width="1.8" d="M852,-339C852,-339 776,-367 776,-367 776,-367 727.55,-430.25 710.14,-452.99"/>
<polygon fill="#fcbf49" stroke="#fcbf49" stroke-width="1.8" points="710.08,-453.06 700.43,-458.26 707.04,-457.03 704,-461 704,-461 704,-461 707.04,-457.03 707.57,-463.74 710.08,-453.06 710.08,-453.06"/>
<text text-anchor="middle" x="778" y="-370.8" font-family="Helvetica Neue" font-size="14.00"> </text>
<text text-anchor="middle" x="740.69" y="-366.64" font-family="Helvetica Neue" font-size="14.00">HasMany</text>
<text text-anchor="middle" x="740.69" y="-351.64" font-family="Helvetica Neue" font-size="14.00">cities</text>
</g>
<!-- appcountry&#45;&gt;apppost -->
<g id="edge12" class="edge">
<title>appcountry&#45;&gt;apppost</title>
<path fill="none" stroke="#003049" stroke-width="1.8" d="M993.17,-365.87C1039.72,-421.25 1099.8,-492.71 1141.27,-542.04"/>
<polygon fill="#003049" stroke="#003049" stroke-width="1.8" points="1138.65,-544.36 1147.76,-549.76 1144.01,-539.85 1138.65,-544.36"/>
<text text-anchor="middle" x="1067" y="-459.8" font-family="Helvetica Neue" font-size="14.00"> </text>
<text text-anchor="middle" x="1025.22" y="-442.76" font-family="Helvetica Neue" font-size="14.00">HasManyDeep</text>
<text text-anchor="middle" x="1025.22" y="-427.76" font-family="Helvetica Neue" font-size="14.00">posts</text>
</g>
<!-- appcountry&#45;&gt;appcomment -->
<g id="edge13" class="edge">
<title>appcountry&#45;&gt;appcomment</title>
<path fill="none" stroke="#003049" stroke-width="1.8" d="M993.18,-330.4C1086.64,-393.99 1241,-499 1241,-499 1241,-499 1323.26,-579.59 1381.47,-636.62"/>
<polygon fill="#003049" stroke="#003049" stroke-width="1.8" points="1379.2,-639.3 1388.8,-643.8 1384.1,-634.3 1379.2,-639.3"/>
<text text-anchor="middle" x="1191" y="-502.8" font-family="Helvetica Neue" font-size="14.00"> </text>
<text text-anchor="middle" x="1156.38" y="-458.81" font-family="Helvetica Neue" font-size="14.00">HasManyDeep</text>
<text text-anchor="middle" x="1156.38" y="-443.81" font-family="Helvetica Neue" font-size="14.00">comments</text>
</g>
<!-- apppost&#45;&gt;appuser -->
<g id="edge14" class="edge">
<title>apppost:user_id&#45;&gt;appuser:id</title>
<path fill="none" stroke="#f77f00" stroke-width="1.8" d="M1130.87,-609.54C960.24,-637.06 475.57,-715.23 420.18,-724.17"/>
<polygon fill="#f77f00" stroke="#f77f00" stroke-width="1.8" points="1131.06,-609.51 1141.65,-612.36 1136,-608.71 1140.93,-607.91 1140.93,-607.91 1140.93,-607.91 1136,-608.71 1140.22,-603.47 1131.06,-609.51 1131.06,-609.51"/>
<polygon fill="#f77f00" stroke="#f77f00" stroke-width="1.8" points="416.78,-729.78 415.19,-719.9 417.17,-719.59 418.76,-729.46 416.78,-729.78"/>
<polyline fill="none" stroke="#f77f00" stroke-width="1.8" points="415,-725 419.94,-724.2 "/>
<text text-anchor="middle" x="778" y="-669.8" font-family="Helvetica Neue" font-size="14.00"> </text>
<text text-anchor="middle" x="746.53" y="-655.65" font-family="Helvetica Neue" font-size="14.00">BelongsTo</text>
<text text-anchor="middle" x="746.53" y="-640.65" font-family="Helvetica Neue" font-size="14.00">user</text>
</g>
<!-- apppost&#45;&gt;appcomment -->
<g id="edge15" class="edge">
<title>apppost:id&#45;&gt;appcomment:post_id</title>
<path fill="none" stroke="#fcbf49" stroke-width="1.8" d="M1241.19,-618.4C1281,-633.28 1337.16,-654.29 1379.31,-670.05"/>
<polygon fill="#fcbf49" stroke="#fcbf49" stroke-width="1.8" points="1379.53,-670.13 1387.32,-677.85 1384.21,-671.88 1388.89,-673.64 1388.89,-673.64 1388.89,-673.64 1384.21,-671.88 1390.47,-669.42 1379.53,-670.13 1379.53,-670.13"/>
<text text-anchor="middle" x="1315" y="-649.8" font-family="Helvetica Neue" font-size="14.00"> </text>
<text text-anchor="middle" x="1279.75" y="-633.02" font-family="Helvetica Neue" font-size="14.00">HasMany</text>
<text text-anchor="middle" x="1279.75" y="-618.02" font-family="Helvetica Neue" font-size="14.00">comments</text>
</g>
<!-- appcomment&#45;&gt;appuser -->
<g id="edge6" class="edge">
<title>appcomment:user_id&#45;&gt;appuser:id</title>
<path fill="none" stroke="#f77f00" stroke-width="1.8" d="M1390.01,-749.94C1318.42,-836.37 1192,-989 1192,-989 632.5,-989 632.5,-989 632.5,-989 632.5,-989 487,-822 487,-822 487,-822 431.88,-747.73 418.09,-729.17"/>
<polygon fill="#f77f00" stroke="#f77f00" stroke-width="1.8" points="1390.17,-749.75 1400.01,-744.92 1393.36,-745.9 1396.55,-742.05 1396.55,-742.05 1396.55,-742.05 1393.36,-745.9 1393.08,-739.18 1390.17,-749.75 1390.17,-749.75"/>
<polygon fill="#f77f00" stroke="#f77f00" stroke-width="1.8" points="411.58,-728.78 419.61,-722.82 420.8,-724.43 412.77,-730.39 411.58,-728.78"/>
<polyline fill="none" stroke="#f77f00" stroke-width="1.8" points="415,-725 417.98,-729.01 "/>
<text text-anchor="middle" x="922.5" y="-992.8" font-family="Helvetica Neue" font-size="14.00"> </text>
<text text-anchor="middle" x="869.91" y="-977.8" font-family="Helvetica Neue" font-size="14.00">BelongsTo</text>
<text text-anchor="middle" x="869.91" y="-962.8" font-family="Helvetica Neue" font-size="14.00">user</text>
</g>
<!-- appcomment&#45;&gt;apppost -->
<g id="edge7" class="edge">
<title>appcomment:post_id&#45;&gt;apppost:id</title>
<path fill="none" stroke="#f77f00" stroke-width="1.8" d="M1380.87,-646.2C1349.54,-621.08 1317,-595 1317,-595 1317,-595 1313,-595 1313,-595 1313,-595 1278.5,-596.43 1246.35,-597.75"/>
<polygon fill="#f77f00" stroke="#f77f00" stroke-width="1.8" points="1380.98,-646.29 1385.97,-656.06 1384.88,-649.42 1388.78,-652.55 1388.78,-652.55 1388.78,-652.55 1384.88,-649.42 1391.6,-649.04 1380.98,-646.29 1380.98,-646.29"/>
<polygon fill="#f77f00" stroke="#f77f00" stroke-width="1.8" points="1242.42,-602.92 1242.01,-592.93 1244.01,-592.85 1244.42,-602.84 1242.42,-602.92"/>
<polyline fill="none" stroke="#f77f00" stroke-width="1.8" points="1241.22,-597.97 1246.21,-597.76 "/>
<text text-anchor="middle" x="1315" y="-598.8" font-family="Helvetica Neue" font-size="14.00"> </text>
<text text-anchor="middle" x="1350.35" y="-587.29" font-family="Helvetica Neue" font-size="14.00">BelongsTo</text>
<text text-anchor="middle" x="1350.35" y="-572.29" font-family="Helvetica Neue" font-size="14.00">post</text>
</g>
<!-- appcompany&#45;&gt;appuser -->
<g id="edge8" class="edge">
<title>appcompany:id&#45;&gt;appuser:company_id</title>
<path fill="none" stroke="#fcbf49" stroke-width="1.8" d="M583.24,-91.98C541.03,-127.95 487,-174 487,-174 487,-174 444.46,-289.93 404.02,-400.11"/>
<polygon fill="#fcbf49" stroke="#fcbf49" stroke-width="1.8" points="403.94,-400.34 396.27,-408.18 402.21,-405.04 400.49,-409.73 400.49,-409.73 400.49,-409.73 402.21,-405.04 404.72,-411.28 403.94,-400.34 403.94,-400.34"/>
<text text-anchor="middle" x="489" y="-177.8" font-family="Helvetica Neue" font-size="14.00"> </text>
<text text-anchor="middle" x="494.29" y="-216.5" font-family="Helvetica Neue" font-size="14.00">HasMany</text>
<text text-anchor="middle" x="494.29" y="-201.5" font-family="Helvetica Neue" font-size="14.00">users</text>
</g>
<!-- appcompany&#45;&gt;apppost -->
<g id="edge9" class="edge">
<title>appcompany&#45;&gt;apppost</title>
<path fill="none" stroke="#003049" stroke-width="1.8" d="M683.6,-59.72C781.78,-79.17 993,-121 993,-121 993,-121 1141,-532 1141,-532 1141,-532 1143.73,-535.79 1147.91,-541.59"/>
<polygon fill="#003049" stroke="#003049" stroke-width="1.8" points="1145.19,-543.8 1153.87,-549.87 1150.87,-539.71 1145.19,-543.8"/>
<text text-anchor="middle" x="922.5" y="-124.8" font-family="Helvetica Neue" font-size="14.00"> </text>
<text text-anchor="middle" x="1065.57" y="-172.48" font-family="Helvetica Neue" font-size="14.00">HasManyThrough</text>
<text text-anchor="middle" x="1065.57" y="-157.48" font-family="Helvetica Neue" font-size="14.00">posts</text>
</g>
</g>
</svg>
