<?xml version="1.0" encoding="UTF-8" standalone="no"?>
<!DOCTYPE svg PUBLIC "-//W3C//DTD SVG 1.1//EN"
 "http://www.w3.org/Graphics/SVG/1.1/DTD/svg11.dtd">
<!-- Generated by graphviz version 2.44.0 (20200408.0750)
 -->
<!-- Title: G Pages: 1 -->
<svg width="1980pt" height="1373pt"
 viewBox="0.00 0.00 1980.00 1372.69" xmlns="http://www.w3.org/2000/svg" xmlns:xlink="http://www.w3.org/1999/xlink">
<g id="graph0" class="graph" transform="scale(1 1) rotate(0) translate(36 1336.69)">
<title>G</title>
<polygon fill="#f7f7f7" stroke="transparent" points="-36,36 -36,-1336.69 1944,-1336.69 1944,36 -36,36"/>
<!-- appaddress -->
<g id="node1" class="node">
<title>appaddress</title>
<polygon fill="none" stroke="black" points="148,-709.19 0,-709.19 0,-376.19 148,-376.19 148,-709.19"/>
<polygon fill="#d3d3d3" stroke="transparent" points="0,-671.69 0,-708.69 148,-708.69 148,-671.69 0,-671.69"/>
<polygon fill="none" stroke="black" points="0,-671.69 0,-708.69 148,-708.69 148,-671.69 0,-671.69"/>
<text text-anchor="start" x="50" y="-686.49" font-family="Helvetica Neue" font-size="14.00" fill="#333333">Address</text>
<polygon fill="#ffffff" stroke="transparent" points="0,-634.69 0,-671.69 148,-671.69 148,-634.69 0,-634.69"/>
<polygon fill="none" stroke="black" points="0,-634.69 0,-671.69 148,-671.69 148,-634.69 0,-634.69"/>
<text text-anchor="start" x="11" y="-649.49" font-family="Helvetica Neue" font-size="14.00" fill="#333333">id (bigint)</text>
<polygon fill="#ffffff" stroke="transparent" points="0,-597.69 0,-634.69 148,-634.69 148,-597.69 0,-597.69"/>
<polygon fill="none" stroke="black" points="0,-597.69 0,-634.69 148,-634.69 148,-597.69 0,-597.69"/>
<text text-anchor="start" x="11" y="-612.49" font-family="Helvetica Neue" font-size="14.00" fill="#333333">user_id (bigint)</text>
<polygon fill="#ffffff" stroke="transparent" points="0,-560.69 0,-597.69 148,-597.69 148,-560.69 0,-560.69"/>
<polygon fill="none" stroke="black" points="0,-560.69 0,-597.69 148,-597.69 148,-560.69 0,-560.69"/>
<text text-anchor="start" x="11" y="-575.49" font-family="Helvetica Neue" font-size="14.00" fill="#333333">city_id (bigint)</text>
<polygon fill="#ffffff" stroke="transparent" points="0,-523.69 0,-560.69 148,-560.69 148,-523.69 0,-523.69"/>
<polygon fill="none" stroke="black" points="0,-523.69 0,-560.69 148,-560.69 148,-523.69 0,-523.69"/>
<text text-anchor="start" x="11" y="-538.49" font-family="Helvetica Neue" font-size="14.00" fill="#333333">street (string)</text>
<polygon fill="#ffffff" stroke="transparent" points="0,-486.69 0,-523.69 148,-523.69 148,-486.69 0,-486.69"/>
<polygon fill="none" stroke="black" points="0,-486.69 0,-523.69 148,-523.69 148,-486.69 0,-486.69"/>
<text text-anchor="start" x="11" y="-501.49" font-family="Helvetica Neue" font-size="14.00" fill="#333333">street_number (integer)</text>
<polygon fill="#ffffff" stroke="transparent" points="0,-449.69 0,-486.69 148,-486.69 148,-449.69 0,-449.69"/>
<polygon fill="none" stroke="black" points="0,-449.69 0,-486.69 148,-486.69 148,-449.69 0,-449.69"/>
<text text-anchor="start" x="11" y="-464.49" font-family="Helvetica Neue" font-size="14.00" fill="#333333">zip (string)</text>
<polygon fill="#ffffff" stroke="transparent" points="0,-412.69 0,-449.69 148,-449.69 148,-412.69 0,-412.69"/>
<polygon fill="none" stroke="black" points="0,-412.69 0,-449.69 148,-449.69 148,-412.69 0,-412.69"/>
<text text-anchor="start" x="11" y="-427.49" font-family="Helvetica Neue" font-size="14.00" fill="#333333">created_at (datetime)</text>
<polygon fill="#ffffff" stroke="transparent" points="0,-375.69 0,-412.69 148,-412.69 148,-375.69 0,-375.69"/>
<polygon fill="none" stroke="black" points="0,-375.69 0,-412.69 148,-412.69 148,-375.69 0,-375.69"/>
<text text-anchor="start" x="11" y="-390.49" font-family="Helvetica Neue" font-size="14.00" fill="#333333">updated_at (datetime)</text>
</g>
<!-- appuser -->
<g id="node2" class="node">
<title>appuser</title>
<polygon fill="none" stroke="black" points="463,-764.19 296,-764.19 296,-357.19 463,-357.19 463,-764.19"/>
<polygon fill="#d3d3d3" stroke="transparent" points="296.5,-726.69 296.5,-763.69 463.5,-763.69 463.5,-726.69 296.5,-726.69"/>
<polygon fill="none" stroke="black" points="296.5,-726.69 296.5,-763.69 463.5,-763.69 463.5,-726.69 296.5,-726.69"/>
<text text-anchor="start" x="366.5" y="-741.49" font-family="Helvetica Neue" font-size="14.00" fill="#333333">User</text>
<polygon fill="#ffffff" stroke="transparent" points="296.5,-689.69 296.5,-726.69 463.5,-726.69 463.5,-689.69 296.5,-689.69"/>
<polygon fill="none" stroke="black" points="296.5,-689.69 296.5,-726.69 463.5,-726.69 463.5,-689.69 296.5,-689.69"/>
<text text-anchor="start" x="307.5" y="-704.49" font-family="Helvetica Neue" font-size="14.00" fill="#333333">id (bigint)</text>
<polygon fill="#ffffff" stroke="transparent" points="296.5,-652.69 296.5,-689.69 463.5,-689.69 463.5,-652.69 296.5,-652.69"/>
<polygon fill="none" stroke="black" points="296.5,-652.69 296.5,-689.69 463.5,-689.69 463.5,-652.69 296.5,-652.69"/>
<text text-anchor="start" x="307.5" y="-667.49" font-family="Helvetica Neue" font-size="14.00" fill="#333333">city_id (bigint)</text>
<polygon fill="#ffffff" stroke="transparent" points="296.5,-615.69 296.5,-652.69 463.5,-652.69 463.5,-615.69 296.5,-615.69"/>
<polygon fill="none" stroke="black" points="296.5,-615.69 296.5,-652.69 463.5,-652.69 463.5,-615.69 296.5,-615.69"/>
<text text-anchor="start" x="307.5" y="-630.49" font-family="Helvetica Neue" font-size="14.00" fill="#333333">company_id (bigint)</text>
<polygon fill="#ffffff" stroke="transparent" points="296.5,-578.69 296.5,-615.69 463.5,-615.69 463.5,-578.69 296.5,-578.69"/>
<polygon fill="none" stroke="black" points="296.5,-578.69 296.5,-615.69 463.5,-615.69 463.5,-578.69 296.5,-578.69"/>
<text text-anchor="start" x="307.5" y="-593.49" font-family="Helvetica Neue" font-size="14.00" fill="#333333">name (string)</text>
<polygon fill="#ffffff" stroke="transparent" points="296.5,-541.69 296.5,-578.69 463.5,-578.69 463.5,-541.69 296.5,-541.69"/>
<polygon fill="none" stroke="black" points="296.5,-541.69 296.5,-578.69 463.5,-578.69 463.5,-541.69 296.5,-541.69"/>
<text text-anchor="start" x="307.5" y="-556.49" font-family="Helvetica Neue" font-size="14.00" fill="#333333">email (string)</text>
<polygon fill="#ffffff" stroke="transparent" points="296.5,-504.69 296.5,-541.69 463.5,-541.69 463.5,-504.69 296.5,-504.69"/>
<polygon fill="none" stroke="black" points="296.5,-504.69 296.5,-541.69 463.5,-541.69 463.5,-504.69 296.5,-504.69"/>
<text text-anchor="start" x="307.5" y="-519.49" font-family="Helvetica Neue" font-size="14.00" fill="#333333">email_verified_at (datetime)</text>
<polygon fill="#ffffff" stroke="transparent" points="296.5,-467.69 296.5,-504.69 463.5,-504.69 463.5,-467.69 296.5,-467.69"/>
<polygon fill="none" stroke="black" points="296.5,-467.69 296.5,-504.69 463.5,-504.69 463.5,-467.69 296.5,-467.69"/>
<text text-anchor="start" x="307.5" y="-482.49" font-family="Helvetica Neue" font-size="14.00" fill="#333333">password (string)</text>
<polygon fill="#ffffff" stroke="transparent" points="296.5,-430.69 296.5,-467.69 463.5,-467.69 463.5,-430.69 296.5,-430.69"/>
<polygon fill="none" stroke="black" points="296.5,-430.69 296.5,-467.69 463.5,-467.69 463.5,-430.69 296.5,-430.69"/>
<text text-anchor="start" x="307.5" y="-445.49" font-family="Helvetica Neue" font-size="14.00" fill="#333333">remember_token (string)</text>
<polygon fill="#ffffff" stroke="transparent" points="296.5,-393.69 296.5,-430.69 463.5,-430.69 463.5,-393.69 296.5,-393.69"/>
<polygon fill="none" stroke="black" points="296.5,-393.69 296.5,-430.69 463.5,-430.69 463.5,-393.69 296.5,-393.69"/>
<text text-anchor="start" x="307.5" y="-408.49" font-family="Helvetica Neue" font-size="14.00" fill="#333333">created_at (datetime)</text>
<polygon fill="#ffffff" stroke="transparent" points="296.5,-356.69 296.5,-393.69 463.5,-393.69 463.5,-356.69 296.5,-356.69"/>
<polygon fill="none" stroke="black" points="296.5,-356.69 296.5,-393.69 463.5,-393.69 463.5,-356.69 296.5,-356.69"/>
<text text-anchor="start" x="307.5" y="-371.49" font-family="Helvetica Neue" font-size="14.00" fill="#333333">updated_at (datetime)</text>
</g>
<!-- appaddress&#45;&gt;appuser -->
<g id="edge1" class="edge">
<title>appaddress:user_id&#45;&gt;appuser:id</title>
<path fill="none" stroke="#f77f00" stroke-width="1.8" d="M158.01,-615.99C177.79,-614.62 220,-611.69 220,-611.69 220,-611.69 224,-611.69 224,-611.69 224,-611.69 279.12,-685.95 292.91,-704.52"/>
<polygon fill="#f77f00" stroke="#f77f00" stroke-width="1.8" points="157.98,-616 147.69,-612.2 152.99,-616.34 148,-616.69 148,-616.69 148,-616.69 152.99,-616.34 148.31,-621.18 157.98,-616 157.98,-616"/>
<polygon fill="#f77f00" stroke="#f77f00" stroke-width="1.8" points="299.42,-704.91 291.39,-710.87 290.2,-709.26 298.23,-703.3 299.42,-704.91"/>
<polyline fill="none" stroke="#f77f00" stroke-width="1.8" points="296,-708.69 293.02,-704.67 "/>
<text text-anchor="middle" x="222" y="-615.49" font-family="Helvetica Neue" font-size="14.00"> </text>
<text text-anchor="middle" x="209.74" y="-650.35" font-family="Helvetica Neue" font-size="14.00">BelongsTo</text>
<text text-anchor="middle" x="209.74" y="-635.35" font-family="Helvetica Neue" font-size="14.00">user</text>
</g>
<!-- appcity -->
<g id="node3" class="node">
<title>appcity</title>
<polygon fill="none" stroke="black" points="752,-432.69 611,-432.69 611,-210.69 752,-210.69 752,-432.69"/>
<polygon fill="#d3d3d3" stroke="transparent" points="611.5,-395.69 611.5,-432.69 752.5,-432.69 752.5,-395.69 611.5,-395.69"/>
<polygon fill="none" stroke="black" points="611.5,-395.69 611.5,-432.69 752.5,-432.69 752.5,-395.69 611.5,-395.69"/>
<text text-anchor="start" x="671.5" y="-410.49" font-family="Helvetica Neue" font-size="14.00" fill="#333333">City</text>
<polygon fill="#ffffff" stroke="transparent" points="611.5,-358.69 611.5,-395.69 752.5,-395.69 752.5,-358.69 611.5,-358.69"/>
<polygon fill="none" stroke="black" points="611.5,-358.69 611.5,-395.69 752.5,-395.69 752.5,-358.69 611.5,-358.69"/>
<text text-anchor="start" x="622.5" y="-373.49" font-family="Helvetica Neue" font-size="14.00" fill="#333333">id (bigint)</text>
<polygon fill="#ffffff" stroke="transparent" points="611.5,-321.69 611.5,-358.69 752.5,-358.69 752.5,-321.69 611.5,-321.69"/>
<polygon fill="none" stroke="black" points="611.5,-321.69 611.5,-358.69 752.5,-358.69 752.5,-321.69 611.5,-321.69"/>
<text text-anchor="start" x="622.5" y="-336.49" font-family="Helvetica Neue" font-size="14.00" fill="#333333">country_id (bigint)</text>
<polygon fill="#ffffff" stroke="transparent" points="611.5,-284.69 611.5,-321.69 752.5,-321.69 752.5,-284.69 611.5,-284.69"/>
<polygon fill="none" stroke="black" points="611.5,-284.69 611.5,-321.69 752.5,-321.69 752.5,-284.69 611.5,-284.69"/>
<text text-anchor="start" x="622.5" y="-299.49" font-family="Helvetica Neue" font-size="14.00" fill="#333333">name (string)</text>
<polygon fill="#ffffff" stroke="transparent" points="611.5,-247.69 611.5,-284.69 752.5,-284.69 752.5,-247.69 611.5,-247.69"/>
<polygon fill="none" stroke="black" points="611.5,-247.69 611.5,-284.69 752.5,-284.69 752.5,-247.69 611.5,-247.69"/>
<text text-anchor="start" x="622.5" y="-262.49" font-family="Helvetica Neue" font-size="14.00" fill="#333333">created_at (datetime)</text>
<polygon fill="#ffffff" stroke="transparent" points="611.5,-210.69 611.5,-247.69 752.5,-247.69 752.5,-210.69 611.5,-210.69"/>
<polygon fill="none" stroke="black" points="611.5,-210.69 611.5,-247.69 752.5,-247.69 752.5,-210.69 611.5,-210.69"/>
<text text-anchor="start" x="622.5" y="-225.49" font-family="Helvetica Neue" font-size="14.00" fill="#333333">updated_at (datetime)</text>
</g>
<!-- appaddress&#45;&gt;appcity -->
<g id="edge2" class="edge">
<title>appaddress:city_id&#45;&gt;appcity:id</title>
<path fill="none" stroke="#f77f00" stroke-width="1.8" d="M152.76,-570.88C178.09,-523.98 296,-305.69 296,-305.69 296,-305.69 463,-305.69 463,-305.69 463,-305.69 581.43,-363.3 606.41,-375.46"/>
<polygon fill="#f77f00" stroke="#f77f00" stroke-width="1.8" points="152.75,-570.89 144.04,-577.55 150.38,-575.29 148,-579.69 148,-579.69 148,-579.69 150.38,-575.29 151.96,-581.83 152.75,-570.89 152.75,-570.89"/>
<polygon fill="#f77f00" stroke="#f77f00" stroke-width="1.8" points="612.29,-372.76 607.91,-381.75 606.11,-380.87 610.49,-371.88 612.29,-372.76"/>
<polyline fill="none" stroke="#f77f00" stroke-width="1.8" points="611,-377.69 606.5,-375.5 "/>
<text text-anchor="middle" x="379.5" y="-309.49" font-family="Helvetica Neue" font-size="14.00"> </text>
<text text-anchor="middle" x="279.54" y="-294.49" font-family="Helvetica Neue" font-size="14.00">BelongsTo</text>
<text text-anchor="middle" x="279.54" y="-279.49" font-family="Helvetica Neue" font-size="14.00">city</text>
</g>
<!-- appuser&#45;&gt;appaddress -->
<g id="edge23" class="edge">
<title>appuser:id&#45;&gt;appaddress:user_id</title>
<path fill="none" stroke="#d62828" stroke-width="1.8" d="M296,-708.69C296,-708.69 176.54,-634.43 152.27,-619.34"/>
<polygon fill="#d62828" stroke="#d62828" stroke-width="1.8" points="146.21,-621.46 151.49,-612.97 153.19,-614.03 147.91,-622.52 146.21,-621.46"/>
<polyline fill="none" stroke="#d62828" stroke-width="1.8" points="148,-616.69 152.25,-619.33 "/>
<text text-anchor="middle" x="222" y="-666.49" font-family="Helvetica Neue" font-size="14.00"> </text>
<text text-anchor="middle" x="247.13" y="-682.82" font-family="Helvetica Neue" font-size="14.00">HasOne</text>
<text text-anchor="middle" x="247.13" y="-667.82" font-family="Helvetica Neue" font-size="14.00">address</text>
</g>
<!-- appuser&#45;&gt;appcity -->
<g id="edge22" class="edge">
<title>appuser:city_id&#45;&gt;appcity:id</title>
<path fill="none" stroke="#f77f00" stroke-width="1.8" d="M472.94,-668.94C493.54,-663.25 539,-650.69 539,-650.69 539,-650.69 599.67,-420.64 609.63,-382.9"/>
<polygon fill="#f77f00" stroke="#f77f00" stroke-width="1.8" points="472.64,-669.03 461.8,-667.35 467.82,-670.36 463,-671.69 463,-671.69 463,-671.69 467.82,-670.36 464.2,-676.03 472.64,-669.03 472.64,-669.03"/>
<polygon fill="#f77f00" stroke="#f77f00" stroke-width="1.8" points="605.91,-377.38 615.58,-379.93 615.07,-381.87 605.4,-379.31 605.91,-377.38"/>
<polyline fill="none" stroke="#f77f00" stroke-width="1.8" points="611,-377.69 609.72,-382.52 "/>
<text text-anchor="middle" x="537" y="-655.49" font-family="Helvetica Neue" font-size="14.00"> </text>
<text text-anchor="middle" x="536.57" y="-568.73" font-family="Helvetica Neue" font-size="14.00">BelongsTo</text>
<text text-anchor="middle" x="536.57" y="-553.73" font-family="Helvetica Neue" font-size="14.00">city</text>
</g>
<!-- appcountry -->
<g id="node4" class="node">
<title>appcountry</title>
<polygon fill="none" stroke="black" points="1041,-333.69 900,-333.69 900,-111.69 1041,-111.69 1041,-333.69"/>
<polygon fill="#d3d3d3" stroke="transparent" points="900.5,-296.69 900.5,-333.69 1041.5,-333.69 1041.5,-296.69 900.5,-296.69"/>
<polygon fill="none" stroke="black" points="900.5,-296.69 900.5,-333.69 1041.5,-333.69 1041.5,-296.69 900.5,-296.69"/>
<text text-anchor="start" x="949" y="-311.49" font-family="Helvetica Neue" font-size="14.00" fill="#333333">Country</text>
<polygon fill="#ffffff" stroke="transparent" points="900.5,-259.69 900.5,-296.69 1041.5,-296.69 1041.5,-259.69 900.5,-259.69"/>
<polygon fill="none" stroke="black" points="900.5,-259.69 900.5,-296.69 1041.5,-296.69 1041.5,-259.69 900.5,-259.69"/>
<text text-anchor="start" x="911.5" y="-274.49" font-family="Helvetica Neue" font-size="14.00" fill="#333333">id (bigint)</text>
<polygon fill="#ffffff" stroke="transparent" points="900.5,-222.69 900.5,-259.69 1041.5,-259.69 1041.5,-222.69 900.5,-222.69"/>
<polygon fill="none" stroke="black" points="900.5,-222.69 900.5,-259.69 1041.5,-259.69 1041.5,-222.69 900.5,-222.69"/>
<text text-anchor="start" x="911.5" y="-237.49" font-family="Helvetica Neue" font-size="14.00" fill="#333333">code (string)</text>
<polygon fill="#ffffff" stroke="transparent" points="900.5,-185.69 900.5,-222.69 1041.5,-222.69 1041.5,-185.69 900.5,-185.69"/>
<polygon fill="none" stroke="black" points="900.5,-185.69 900.5,-222.69 1041.5,-222.69 1041.5,-185.69 900.5,-185.69"/>
<text text-anchor="start" x="911.5" y="-200.49" font-family="Helvetica Neue" font-size="14.00" fill="#333333">name (string)</text>
<polygon fill="#ffffff" stroke="transparent" points="900.5,-148.69 900.5,-185.69 1041.5,-185.69 1041.5,-148.69 900.5,-148.69"/>
<polygon fill="none" stroke="black" points="900.5,-148.69 900.5,-185.69 1041.5,-185.69 1041.5,-148.69 900.5,-148.69"/>
<text text-anchor="start" x="911.5" y="-163.49" font-family="Helvetica Neue" font-size="14.00" fill="#333333">created_at (datetime)</text>
<polygon fill="#ffffff" stroke="transparent" points="900.5,-111.69 900.5,-148.69 1041.5,-148.69 1041.5,-111.69 900.5,-111.69"/>
<polygon fill="none" stroke="black" points="900.5,-111.69 900.5,-148.69 1041.5,-148.69 1041.5,-111.69 900.5,-111.69"/>
<text text-anchor="start" x="911.5" y="-126.49" font-family="Helvetica Neue" font-size="14.00" fill="#333333">updated_at (datetime)</text>
</g>
<!-- appuser&#45;&gt;appcountry -->
<g id="edge20" class="edge">
<title>appuser&#45;&gt;appcountry</title>
<path fill="none" stroke="#003049" stroke-width="1.8" d="M463.06,-417.05C529.2,-301.99 611,-159.69 611,-159.69 611,-159.69 752,-159.69 752,-159.69 752,-159.69 827.84,-181.66 889.95,-199.65"/>
<polygon fill="#003049" stroke="#003049" stroke-width="1.8" points="889.21,-203.08 899.78,-202.5 891.15,-196.35 889.21,-203.08"/>
<text text-anchor="middle" x="681.5" y="-163.49" font-family="Helvetica Neue" font-size="14.00"> </text>
<text text-anchor="middle" x="555.95" y="-153.79" font-family="Helvetica Neue" font-size="14.00">BelongsToThrough</text>
<text text-anchor="middle" x="555.95" y="-138.79" font-family="Helvetica Neue" font-size="14.00">country</text>
</g>
<!-- apppost -->
<g id="node5" class="node">
<title>apppost</title>
<polygon fill="none" stroke="black" points="1330,-812.19 1189,-812.19 1189,-553.19 1330,-553.19 1330,-812.19"/>
<polygon fill="#d3d3d3" stroke="transparent" points="1189.5,-774.69 1189.5,-811.69 1330.5,-811.69 1330.5,-774.69 1189.5,-774.69"/>
<polygon fill="none" stroke="black" points="1189.5,-774.69 1189.5,-811.69 1330.5,-811.69 1330.5,-774.69 1189.5,-774.69"/>
<text text-anchor="start" x="1247" y="-789.49" font-family="Helvetica Neue" font-size="14.00" fill="#333333">Post</text>
<polygon fill="#ffffff" stroke="transparent" points="1189.5,-737.69 1189.5,-774.69 1330.5,-774.69 1330.5,-737.69 1189.5,-737.69"/>
<polygon fill="none" stroke="black" points="1189.5,-737.69 1189.5,-774.69 1330.5,-774.69 1330.5,-737.69 1189.5,-737.69"/>
<text text-anchor="start" x="1200.5" y="-752.49" font-family="Helvetica Neue" font-size="14.00" fill="#333333">id (bigint)</text>
<polygon fill="#ffffff" stroke="transparent" points="1189.5,-700.69 1189.5,-737.69 1330.5,-737.69 1330.5,-700.69 1189.5,-700.69"/>
<polygon fill="none" stroke="black" points="1189.5,-700.69 1189.5,-737.69 1330.5,-737.69 1330.5,-700.69 1189.5,-700.69"/>
<text text-anchor="start" x="1200.5" y="-715.49" font-family="Helvetica Neue" font-size="14.00" fill="#333333">user_id (bigint)</text>
<polygon fill="#ffffff" stroke="transparent" points="1189.5,-663.69 1189.5,-700.69 1330.5,-700.69 1330.5,-663.69 1189.5,-663.69"/>
<polygon fill="none" stroke="black" points="1189.5,-663.69 1189.5,-700.69 1330.5,-700.69 1330.5,-663.69 1189.5,-663.69"/>
<text text-anchor="start" x="1200.5" y="-678.49" font-family="Helvetica Neue" font-size="14.00" fill="#333333">title (string)</text>
<polygon fill="#ffffff" stroke="transparent" points="1189.5,-626.69 1189.5,-663.69 1330.5,-663.69 1330.5,-626.69 1189.5,-626.69"/>
<polygon fill="none" stroke="black" points="1189.5,-626.69 1189.5,-663.69 1330.5,-663.69 1330.5,-626.69 1189.5,-626.69"/>
<text text-anchor="start" x="1200.5" y="-641.49" font-family="Helvetica Neue" font-size="14.00" fill="#333333">body (text)</text>
<polygon fill="#ffffff" stroke="transparent" points="1189.5,-589.69 1189.5,-626.69 1330.5,-626.69 1330.5,-589.69 1189.5,-589.69"/>
<polygon fill="none" stroke="black" points="1189.5,-589.69 1189.5,-626.69 1330.5,-626.69 1330.5,-589.69 1189.5,-589.69"/>
<text text-anchor="start" x="1200.5" y="-604.49" font-family="Helvetica Neue" font-size="14.00" fill="#333333">created_at (datetime)</text>
<polygon fill="#ffffff" stroke="transparent" points="1189.5,-552.69 1189.5,-589.69 1330.5,-589.69 1330.5,-552.69 1189.5,-552.69"/>
<polygon fill="none" stroke="black" points="1189.5,-552.69 1189.5,-589.69 1330.5,-589.69 1330.5,-552.69 1189.5,-552.69"/>
<text text-anchor="start" x="1200.5" y="-567.49" font-family="Helvetica Neue" font-size="14.00" fill="#333333">updated_at (datetime)</text>
</g>
<!-- appuser&#45;&gt;apppost -->
<g id="edge24" class="edge">
<title>appuser:id&#45;&gt;apppost:user_id</title>
<path fill="none" stroke="#fcbf49" stroke-width="1.8" d="M463,-708.69C463,-708.69 535,-772.69 535,-772.69 535,-772.69 611,-781.69 611,-781.69 611,-781.69 752,-781.69 752,-781.69 752,-781.69 1041,-777.69 1041,-777.69 1041,-777.69 1117,-775.69 1117,-775.69 1117,-775.69 1162.27,-740.48 1181.02,-725.9"/>
<polygon fill="#fcbf49" stroke="#fcbf49" stroke-width="1.8" points="1181.11,-725.83 1191.76,-723.24 1185.05,-722.76 1189,-719.69 1189,-719.69 1189,-719.69 1185.05,-722.76 1186.24,-716.14 1181.11,-725.83 1181.11,-725.83"/>
<text text-anchor="middle" x="826" y="-783.49" font-family="Helvetica Neue" font-size="14.00"> </text>
<text text-anchor="middle" x="791.14" y="-769.57" font-family="Helvetica Neue" font-size="14.00">HasMany</text>
<text text-anchor="middle" x="791.14" y="-754.57" font-family="Helvetica Neue" font-size="14.00">posts</text>
</g>
<!-- appcomment -->
<g id="node6" class="node">
<title>appcomment</title>
<polygon fill="none" stroke="black" points="1619,-979.19 1478,-979.19 1478,-720.19 1619,-720.19 1619,-979.19"/>
<polygon fill="#d3d3d3" stroke="transparent" points="1478.5,-941.69 1478.5,-978.69 1619.5,-978.69 1619.5,-941.69 1478.5,-941.69"/>
<polygon fill="none" stroke="black" points="1478.5,-941.69 1478.5,-978.69 1619.5,-978.69 1619.5,-941.69 1478.5,-941.69"/>
<text text-anchor="start" x="1520.5" y="-956.49" font-family="Helvetica Neue" font-size="14.00" fill="#333333">Comment</text>
<polygon fill="#ffffff" stroke="transparent" points="1478.5,-904.69 1478.5,-941.69 1619.5,-941.69 1619.5,-904.69 1478.5,-904.69"/>
<polygon fill="none" stroke="black" points="1478.5,-904.69 1478.5,-941.69 1619.5,-941.69 1619.5,-904.69 1478.5,-904.69"/>
<text text-anchor="start" x="1489.5" y="-919.49" font-family="Helvetica Neue" font-size="14.00" fill="#333333">id (bigint)</text>
<polygon fill="#ffffff" stroke="transparent" points="1478.5,-867.69 1478.5,-904.69 1619.5,-904.69 1619.5,-867.69 1478.5,-867.69"/>
<polygon fill="none" stroke="black" points="1478.5,-867.69 1478.5,-904.69 1619.5,-904.69 1619.5,-867.69 1478.5,-867.69"/>
<text text-anchor="start" x="1489.5" y="-882.49" font-family="Helvetica Neue" font-size="14.00" fill="#333333">user_id (bigint)</text>
<polygon fill="#ffffff" stroke="transparent" points="1478.5,-830.69 1478.5,-867.69 1619.5,-867.69 1619.5,-830.69 1478.5,-830.69"/>
<polygon fill="none" stroke="black" points="1478.5,-830.69 1478.5,-867.69 1619.5,-867.69 1619.5,-830.69 1478.5,-830.69"/>
<text text-anchor="start" x="1489.5" y="-845.49" font-family="Helvetica Neue" font-size="14.00" fill="#333333">post_id (bigint)</text>
<polygon fill="#ffffff" stroke="transparent" points="1478.5,-793.69 1478.5,-830.69 1619.5,-830.69 1619.5,-793.69 1478.5,-793.69"/>
<polygon fill="none" stroke="black" points="1478.5,-793.69 1478.5,-830.69 1619.5,-830.69 1619.5,-793.69 1478.5,-793.69"/>
<text text-anchor="start" x="1489.5" y="-808.49" font-family="Helvetica Neue" font-size="14.00" fill="#333333">body (text)</text>
<polygon fill="#ffffff" stroke="transparent" points="1478.5,-756.69 1478.5,-793.69 1619.5,-793.69 1619.5,-756.69 1478.5,-756.69"/>
<polygon fill="none" stroke="black" points="1478.5,-756.69 1478.5,-793.69 1619.5,-793.69 1619.5,-756.69 1478.5,-756.69"/>
<text text-anchor="start" x="1489.5" y="-771.49" font-family="Helvetica Neue" font-size="14.00" fill="#333333">created_at (datetime)</text>
<polygon fill="#ffffff" stroke="transparent" points="1478.5,-719.69 1478.5,-756.69 1619.5,-756.69 1619.5,-719.69 1478.5,-719.69"/>
<polygon fill="none" stroke="black" points="1478.5,-719.69 1478.5,-756.69 1619.5,-756.69 1619.5,-719.69 1478.5,-719.69"/>
<text text-anchor="start" x="1489.5" y="-734.49" font-family="Helvetica Neue" font-size="14.00" fill="#333333">updated_at (datetime)</text>
</g>
<!-- appuser&#45;&gt;appcomment -->
<g id="edge25" class="edge">
<title>appuser:id&#45;&gt;appcomment:user_id</title>
<path fill="none" stroke="#fcbf49" stroke-width="1.8" d="M463,-708.69C463,-708.69 611,-1116.69 611,-1116.69 611,-1116.69 680.5,-1285.69 680.5,-1285.69 680.5,-1285.69 680.5,-1285.69 1260.5,-1285.69 1260.5,-1285.69 1330,-1181.69 1330,-1181.69 1330,-1181.69 1448.43,-945.63 1473.41,-895.84"/>
<polygon fill="#fcbf49" stroke="#fcbf49" stroke-width="1.8" points="1473.52,-895.63 1482.02,-888.71 1475.76,-891.16 1478,-886.69 1478,-886.69 1478,-886.69 1475.76,-891.16 1473.98,-884.67 1473.52,-895.63 1473.52,-895.63"/>
<text text-anchor="middle" x="970.5" y="-1289.49" font-family="Helvetica Neue" font-size="14.00"> </text>
<text text-anchor="middle" x="854.07" y="-1274.49" font-family="Helvetica Neue" font-size="14.00">HasMany</text>
<text text-anchor="middle" x="854.07" y="-1259.49" font-family="Helvetica Neue" font-size="14.00">comments</text>
</g>
<!-- appcompany -->
<g id="node7" class="node">
<title>appcompany</title>
<polygon fill="none" stroke="black" points="752,-690.19 611,-690.19 611,-505.19 752,-505.19 752,-690.19"/>
<polygon fill="#d3d3d3" stroke="transparent" points="611.5,-652.69 611.5,-689.69 752.5,-689.69 752.5,-652.69 611.5,-652.69"/>
<polygon fill="none" stroke="black" points="611.5,-652.69 611.5,-689.69 752.5,-689.69 752.5,-652.69 611.5,-652.69"/>
<text text-anchor="start" x="654" y="-667.49" font-family="Helvetica Neue" font-size="14.00" fill="#333333">Company</text>
<polygon fill="#ffffff" stroke="transparent" points="611.5,-615.69 611.5,-652.69 752.5,-652.69 752.5,-615.69 611.5,-615.69"/>
<polygon fill="none" stroke="black" points="611.5,-615.69 611.5,-652.69 752.5,-652.69 752.5,-615.69 611.5,-615.69"/>
<text text-anchor="start" x="622.5" y="-630.49" font-family="Helvetica Neue" font-size="14.00" fill="#333333">id (bigint)</text>
<polygon fill="#ffffff" stroke="transparent" points="611.5,-578.69 611.5,-615.69 752.5,-615.69 752.5,-578.69 611.5,-578.69"/>
<polygon fill="none" stroke="black" points="611.5,-578.69 611.5,-615.69 752.5,-615.69 752.5,-578.69 611.5,-578.69"/>
<text text-anchor="start" x="622.5" y="-593.49" font-family="Helvetica Neue" font-size="14.00" fill="#333333">name (string)</text>
<polygon fill="#ffffff" stroke="transparent" points="611.5,-541.69 611.5,-578.69 752.5,-578.69 752.5,-541.69 611.5,-541.69"/>
<polygon fill="none" stroke="black" points="611.5,-541.69 611.5,-578.69 752.5,-578.69 752.5,-541.69 611.5,-541.69"/>
<text text-anchor="start" x="622.5" y="-556.49" font-family="Helvetica Neue" font-size="14.00" fill="#333333">created_at (datetime)</text>
<polygon fill="#ffffff" stroke="transparent" points="611.5,-504.69 611.5,-541.69 752.5,-541.69 752.5,-504.69 611.5,-504.69"/>
<polygon fill="none" stroke="black" points="611.5,-504.69 611.5,-541.69 752.5,-541.69 752.5,-504.69 611.5,-504.69"/>
<text text-anchor="start" x="622.5" y="-519.49" font-family="Helvetica Neue" font-size="14.00" fill="#333333">updated_at (datetime)</text>
</g>
<!-- appuser&#45;&gt;appcompany -->
<g id="edge21" class="edge">
<title>appuser:company_id&#45;&gt;appcompany:id</title>
<path fill="none" stroke="#f77f00" stroke-width="1.8" d="M472.12,-629.88C491.49,-619.65 535,-596.69 535,-596.69 535,-596.69 539,-596.69 539,-596.69 539,-596.69 590.26,-623.74 606.28,-632.2"/>
<polygon fill="#f77f00" stroke="#f77f00" stroke-width="1.8" points="471.84,-630.02 460.9,-630.71 467.42,-632.36 463,-634.69 463,-634.69 463,-634.69 467.42,-632.36 465.1,-638.67 471.84,-630.02 471.84,-630.02"/>
<polygon fill="#f77f00" stroke="#f77f00" stroke-width="1.8" points="612.45,-629.8 607.78,-638.64 606.01,-637.71 610.68,-628.87 612.45,-629.8"/>
<polyline fill="none" stroke="#f77f00" stroke-width="1.8" points="611,-634.69 606.58,-632.36 "/>
<text text-anchor="middle" x="537" y="-600.49" font-family="Helvetica Neue" font-size="14.00"> </text>
<text text-anchor="middle" x="568.43" y="-615.72" font-family="Helvetica Neue" font-size="14.00">BelongsTo</text>
<text text-anchor="middle" x="568.43" y="-600.72" font-family="Helvetica Neue" font-size="14.00">company</text>
</g>
<!-- appcity&#45;&gt;appuser -->
<g id="edge4" class="edge">
<title>appcity:id&#45;&gt;appuser:city_id</title>
<path fill="none" stroke="#fcbf49" stroke-width="1.8" d="M611,-377.69C611,-377.69 492.57,-612.94 467.59,-662.57"/>
<polygon fill="#fcbf49" stroke="#fcbf49" stroke-width="1.8" points="467.5,-662.76 458.98,-669.67 465.25,-667.22 463,-671.69 463,-671.69 463,-671.69 465.25,-667.22 467.02,-673.71 467.5,-662.76 467.5,-662.76"/>
<text text-anchor="middle" x="537" y="-528.49" font-family="Helvetica Neue" font-size="14.00"> </text>
<text text-anchor="middle" x="512.3" y="-508.93" font-family="Helvetica Neue" font-size="14.00">HasMany</text>
<text text-anchor="middle" x="512.3" y="-493.93" font-family="Helvetica Neue" font-size="14.00">users</text>
</g>
<!-- appcity&#45;&gt;appcountry -->
<g id="edge3" class="edge">
<title>appcity:country_id&#45;&gt;appcountry:id</title>
<path fill="none" stroke="#f77f00" stroke-width="1.8" d="M762.01,-340.97C781.79,-341.52 824,-342.69 824,-342.69 824,-342.69 828,-342.69 828,-342.69 828,-342.69 881.17,-295.42 896.13,-282.13"/>
<polygon fill="#f77f00" stroke="#f77f00" stroke-width="1.8" points="762,-340.97 752.12,-336.19 757,-340.83 752,-340.69 752,-340.69 752,-340.69 757,-340.83 751.88,-345.19 762,-340.97 762,-340.97"/>
<polygon fill="#f77f00" stroke="#f77f00" stroke-width="1.8" points="895.93,-275.62 902.57,-283.09 901.08,-284.42 894.44,-276.95 895.93,-275.62"/>
<polyline fill="none" stroke="#f77f00" stroke-width="1.8" points="900,-278.69 896.26,-282.01 "/>
<text text-anchor="middle" x="826" y="-346.49" font-family="Helvetica Neue" font-size="14.00"> </text>
<text text-anchor="middle" x="866.4" y="-323.14" font-family="Helvetica Neue" font-size="14.00">BelongsTo</text>
<text text-anchor="middle" x="866.4" y="-308.14" font-family="Helvetica Neue" font-size="14.00">country</text>
</g>
<!-- appcity&#45;&gt;apppost -->
<g id="edge5" class="edge">
<title>appcity&#45;&gt;apppost</title>
<path fill="none" stroke="#003049" stroke-width="1.8" d="M1116,-636.69C1116,-636.69 1146.44,-646.52 1179.18,-657.09"/>
<polygon fill="#003049" stroke="#003049" stroke-width="1.8" points="1178.33,-660.49 1188.92,-660.23 1180.48,-653.83 1178.33,-660.49"/>
<path fill="none" stroke="#003049" stroke-width="1.8" d="M752.31,-372.65C874.43,-461.8 1114,-636.69 1114,-636.69"/>
<text text-anchor="middle" x="970.5" y="-583.49" font-family="Helvetica Neue" font-size="14.00"> </text>
<text text-anchor="middle" x="856.34" y="-473.9" font-family="Helvetica Neue" font-size="14.00">HasManyThrough</text>
<text text-anchor="middle" x="856.34" y="-458.9" font-family="Helvetica Neue" font-size="14.00">posts</text>
</g>
<!-- appcountry&#45;&gt;appuser -->
<g id="edge11" class="edge">
<title>appcountry&#45;&gt;appuser</title>
<path fill="none" stroke="#003049" stroke-width="1.8" d="M899.99,-147.04C864.21,-108.1 828,-68.69 828,-68.69 828,-68.69 752,-18.69 752,-18.69 752,-18.69 611,-18.69 611,-18.69 611,-18.69 535,-68.69 535,-68.69 535,-68.69 463,-338.69 463,-338.69 463,-338.69 461.85,-341.79 459.82,-347.25"/>
<polygon fill="#003049" stroke="#003049" stroke-width="1.8" points="456.45,-346.26 456.25,-356.86 463.01,-348.7 456.45,-346.26"/>
<text text-anchor="middle" x="681.5" y="-22.49" font-family="Helvetica Neue" font-size="14.00"> </text>
<text text-anchor="middle" x="543.81" y="-18.8" font-family="Helvetica Neue" font-size="14.00">HasManyThrough</text>
<text text-anchor="middle" x="543.81" y="-3.8" font-family="Helvetica Neue" font-size="14.00">users</text>
</g>
<!-- appcountry&#45;&gt;appcity -->
<g id="edge10" class="edge">
<title>appcountry:id&#45;&gt;appcity:country_id</title>
<path fill="none" stroke="#fcbf49" stroke-width="1.8" d="M900,-278.69C900,-278.69 793.66,-323.24 761.26,-336.81"/>
<polygon fill="#fcbf49" stroke="#fcbf49" stroke-width="1.8" points="761.22,-336.83 750.26,-336.54 756.61,-338.76 752,-340.69 752,-340.69 752,-340.69 756.61,-338.76 753.74,-344.84 761.22,-336.83 761.22,-336.83"/>
<text text-anchor="middle" x="826" y="-313.49" font-family="Helvetica Neue" font-size="14.00"> </text>
<text text-anchor="middle" x="803.63" y="-296.55" font-family="Helvetica Neue" font-size="14.00">HasMany</text>
<text text-anchor="middle" x="803.63" y="-281.55" font-family="Helvetica Neue" font-size="14.00">cities</text>
</g>
<!-- appcountry&#45;&gt;apppost -->
<g id="edge12" class="edge">
<title>appcountry&#45;&gt;apppost</title>
<path fill="none" stroke="#003049" stroke-width="1.8" d="M1027.42,-333.75C1066.98,-412.29 1113,-503.69 1113,-503.69 1113,-503.69 1147.3,-545.88 1182.59,-589.3"/>
<polygon fill="#003049" stroke="#003049" stroke-width="1.8" points="1179.92,-591.57 1188.95,-597.12 1185.35,-587.15 1179.92,-591.57"/>
<text text-anchor="middle" x="1115" y="-511.49" font-family="Helvetica Neue" font-size="14.00"> </text>
<text text-anchor="middle" x="1053.02" y="-456.79" font-family="Helvetica Neue" font-size="14.00">HasManyDeep</text>
<text text-anchor="middle" x="1053.02" y="-441.79" font-family="Helvetica Neue" font-size="14.00">posts</text>
</g>
<!-- appcountry&#45;&gt;appcomment -->
<g id="edge13" class="edge">
<title>appcountry&#45;&gt;appcomment</title>
<path fill="none" stroke="#003049" stroke-width="1.8" d="M1041.05,-276.81C1145.3,-357.95 1330,-501.69 1330,-501.69 1330,-501.69 1409.47,-628.84 1472.33,-729.42"/>
<polygon fill="#003049" stroke="#003049" stroke-width="1.8" points="1469.52,-731.52 1477.78,-738.14 1475.45,-727.81 1469.52,-731.52"/>
<text text-anchor="middle" x="1259.5" y="-505.49" font-family="Helvetica Neue" font-size="14.00"> </text>
<text text-anchor="middle" x="1249.49" y="-460.52" font-family="Helvetica Neue" font-size="14.00">HasManyDeep</text>
<text text-anchor="middle" x="1249.49" y="-445.52" font-family="Helvetica Neue" font-size="14.00">comments</text>
</g>
<!-- apppost&#45;&gt;appuser -->
<g id="edge14" class="edge">
<title>apppost:user_id&#45;&gt;appuser:id</title>
<path fill="none" stroke="#f77f00" stroke-width="1.8" d="M1178.63,-719.86C1112.45,-720.92 752,-726.69 752,-726.69 752,-726.69 611,-726.69 611,-726.69 611,-726.69 494.63,-712.54 468.27,-709.33"/>
<polygon fill="#f77f00" stroke="#f77f00" stroke-width="1.8" points="1179,-719.85 1189.07,-724.19 1184,-719.77 1189,-719.69 1189,-719.69 1189,-719.69 1184,-719.77 1188.93,-715.19 1179,-719.85 1179,-719.85"/>
<polygon fill="#f77f00" stroke="#f77f00" stroke-width="1.8" points="463.39,-713.77 464.6,-703.85 466.58,-704.09 465.37,-714.01 463.39,-713.77"/>
<polyline fill="none" stroke="#f77f00" stroke-width="1.8" points="463,-708.69 467.96,-709.29 "/>
<text text-anchor="middle" x="826" y="-728.49" font-family="Helvetica Neue" font-size="14.00"> </text>
<text text-anchor="middle" x="793.94" y="-714.35" font-family="Helvetica Neue" font-size="14.00">BelongsTo</text>
<text text-anchor="middle" x="793.94" y="-699.35" font-family="Helvetica Neue" font-size="14.00">user</text>
</g>
<!-- apppost&#45;&gt;appcomment -->
<g id="edge15" class="edge">
<title>apppost:id&#45;&gt;appcomment:post_id</title>
<path fill="none" stroke="#fcbf49" stroke-width="1.8" d="M1330,-756.69C1330,-756.69 1437.32,-823.4 1469.19,-843.21"/>
<polygon fill="#fcbf49" stroke="#fcbf49" stroke-width="1.8" points="1469.51,-843.41 1475.62,-852.51 1473.75,-846.05 1478,-848.69 1478,-848.69 1478,-848.69 1473.75,-846.05 1480.38,-844.87 1469.51,-843.41 1469.51,-843.41"/>
<text text-anchor="middle" x="1404" y="-806.49" font-family="Helvetica Neue" font-size="14.00"> </text>
<text text-anchor="middle" x="1369.09" y="-788.75" font-family="Helvetica Neue" font-size="14.00">HasMany</text>
<text text-anchor="middle" x="1369.09" y="-773.75" font-family="Helvetica Neue" font-size="14.00">comments</text>
</g>
<!-- post_tag -->
<g id="node8" class="node">
<title>post_tag</title>
<polygon fill="none" stroke="black" points="1599,-557.19 1498,-557.19 1498,-446.19 1599,-446.19 1599,-557.19"/>
<polygon fill="#d3d3d3" stroke="transparent" points="1498.5,-519.69 1498.5,-556.69 1599.5,-556.69 1599.5,-519.69 1498.5,-519.69"/>
<polygon fill="none" stroke="black" points="1498.5,-519.69 1498.5,-556.69 1599.5,-556.69 1599.5,-519.69 1498.5,-519.69"/>
<text text-anchor="start" x="1535.5" y="-534.49" font-family="Helvetica Neue" font-size="14.00" fill="#333333">Pivot</text>
<polygon fill="#ffffff" stroke="transparent" points="1498.5,-482.69 1498.5,-519.69 1599.5,-519.69 1599.5,-482.69 1498.5,-482.69"/>
<polygon fill="none" stroke="black" points="1498.5,-482.69 1498.5,-519.69 1599.5,-519.69 1599.5,-482.69 1498.5,-482.69"/>
<text text-anchor="start" x="1509.5" y="-497.49" font-family="Helvetica Neue" font-size="14.00" fill="#333333">post_id (bigint)</text>
<polygon fill="#ffffff" stroke="transparent" points="1498.5,-445.69 1498.5,-482.69 1599.5,-482.69 1599.5,-445.69 1498.5,-445.69"/>
<polygon fill="none" stroke="black" points="1498.5,-445.69 1498.5,-482.69 1599.5,-482.69 1599.5,-445.69 1498.5,-445.69"/>
<text text-anchor="start" x="1509.5" y="-460.49" font-family="Helvetica Neue" font-size="14.00" fill="#333333">tag_id (bigint)</text>
</g>
<!-- apppost&#45;&gt;post_tag -->
<g id="edge16" class="edge">
<title>apppost:id&#45;&gt;post_tag:post_id</title>
<path fill="none" stroke="#003049" stroke-width="1.8" d="M1330,-756.69C1330,-756.69 1462.86,-553.63 1491.93,-509.21"/>
<polygon fill="#003049" stroke="#003049" stroke-width="1.8" points="1494.95,-510.97 1497.5,-500.69 1489.1,-507.14 1494.95,-510.97"/>
<text text-anchor="middle" x="1404" y="-648.49" font-family="Helvetica Neue" font-size="14.00"> </text>
<text text-anchor="middle" x="1455.46" y="-621.75" font-family="Helvetica Neue" font-size="14.00">BelongsToMany</text>
<text text-anchor="middle" x="1455.46" y="-606.75" font-family="Helvetica Neue" font-size="14.00">tags</text>
</g>
<!-- appcomment&#45;&gt;appuser -->
<g id="edge6" class="edge">
<title>appcomment:user_id&#45;&gt;appuser:id</title>
<path fill="none" stroke="#f77f00" stroke-width="1.8" d="M1471.25,-894.14C1434.54,-934.64 1260.5,-1126.69 1260.5,-1126.69 680.5,-1126.69 680.5,-1126.69 680.5,-1126.69 680.5,-1126.69 489.34,-759.31 465.44,-713.38"/>
<polygon fill="#f77f00" stroke="#f77f00" stroke-width="1.8" points="1471.28,-894.1 1481.33,-889.71 1474.64,-890.39 1478,-886.69 1478,-886.69 1478,-886.69 1474.64,-890.39 1474.67,-883.67 1471.28,-894.1 1471.28,-894.1"/>
<polygon fill="#f77f00" stroke="#f77f00" stroke-width="1.8" points="459.03,-711.88 467.9,-707.27 468.82,-709.04 459.95,-713.66 459.03,-711.88"/>
<polyline fill="none" stroke="#f77f00" stroke-width="1.8" points="463,-708.69 465.31,-713.12 "/>
<text text-anchor="middle" x="970.5" y="-1130.49" font-family="Helvetica Neue" font-size="14.00"> </text>
<text text-anchor="middle" x="865.47" y="-1115.49" font-family="Helvetica Neue" font-size="14.00">BelongsTo</text>
<text text-anchor="middle" x="865.47" y="-1100.49" font-family="Helvetica Neue" font-size="14.00">user</text>
</g>
<!-- appcomment&#45;&gt;apppost -->
<g id="edge7" class="edge">
<title>appcomment:post_id&#45;&gt;apppost:id</title>
<path fill="none" stroke="#f77f00" stroke-width="1.8" d="M1471.86,-840.42C1454.45,-816.96 1406,-751.69 1406,-751.69 1406,-751.69 1402,-751.69 1402,-751.69 1402,-751.69 1351.69,-755.18 1335.18,-756.33"/>
<polygon fill="#f77f00" stroke="#f77f00" stroke-width="1.8" points="1472.04,-840.66 1474.39,-851.37 1475.02,-844.67 1478,-848.69 1478,-848.69 1478,-848.69 1475.02,-844.67 1481.61,-846.01 1472.04,-840.66 1472.04,-840.66"/>
<polygon fill="#f77f00" stroke="#f77f00" stroke-width="1.8" points="1331.34,-761.61 1330.65,-751.63 1332.65,-751.49 1333.34,-761.47 1331.34,-761.61"/>
<polyline fill="none" stroke="#f77f00" stroke-width="1.8" points="1330,-756.69 1334.99,-756.34 "/>
<text text-anchor="middle" x="1404" y="-755.49" font-family="Helvetica Neue" font-size="14.00"> </text>
<text text-anchor="middle" x="1446.78" y="-756.36" font-family="Helvetica Neue" font-size="14.00">BelongsTo</text>
<text text-anchor="middle" x="1446.78" y="-741.36" font-family="Helvetica Neue" font-size="14.00">post</text>
</g>
<!-- appcompany&#45;&gt;appuser -->
<g id="edge8" class="edge">
<title>appcompany:id&#45;&gt;appuser:company_id</title>
<path fill="none" stroke="#fcbf49" stroke-width="1.8" d="M611,-634.69C611,-634.69 539,-629.69 539,-629.69 539,-629.69 535,-629.69 535,-629.69 535,-629.69 492.79,-632.62 473.01,-633.99"/>
<polygon fill="#fcbf49" stroke="#fcbf49" stroke-width="1.8" points="472.98,-634 462.69,-630.2 467.99,-634.34 463,-634.69 463,-634.69 463,-634.69 467.99,-634.34 463.31,-639.18 472.98,-634 472.98,-634"/>
<text text-anchor="middle" x="537" y="-633.49" font-family="Helvetica Neue" font-size="14.00"> </text>
<text text-anchor="middle" x="569.01" y="-648.7" font-family="Helvetica Neue" font-size="14.00">HasMany</text>
<text text-anchor="middle" x="569.01" y="-633.7" font-family="Helvetica Neue" font-size="14.00">users</text>
</g>
<!-- appcompany&#45;&gt;apppost -->
<g id="edge9" class="edge">
<title>appcompany&#45;&gt;apppost</title>
<path fill="none" stroke="#003049" stroke-width="1.8" d="M752.31,-604C874.43,-615.04 1114,-636.69 1114,-636.69"/>
<text text-anchor="middle" x="970.5" y="-633.49" font-family="Helvetica Neue" font-size="14.00"> </text>
<text text-anchor="middle" x="883.15" y="-609.14" font-family="Helvetica Neue" font-size="14.00">HasManyThrough</text>
<text text-anchor="middle" x="883.15" y="-594.14" font-family="Helvetica Neue" font-size="14.00">posts</text>
</g>
<!-- post_tag&#45;&gt;apppost -->
<g id="edge19" class="edge">
<title>post_tag:post_id&#45;&gt;apppost:id</title>
<path fill="none" stroke="#003049" stroke-width="1.8" d="M1497.5,-500.69C1497.5,-500.69 1402,-611.69 1402,-611.69 1402,-611.69 1350.27,-715.87 1334.5,-747.62"/>
<polygon fill="#003049" stroke="#003049" stroke-width="1.8" points="1331.31,-746.18 1330,-756.69 1337.58,-749.29 1331.31,-746.18"/>
<text text-anchor="middle" x="1404" y="-615.49" font-family="Helvetica Neue" font-size="14.00"> </text>
<text text-anchor="middle" x="1356.31" y="-602.88" font-family="Helvetica Neue" font-size="14.00">BelongsToMany</text>
<text text-anchor="middle" x="1356.31" y="-587.88" font-family="Helvetica Neue" font-size="14.00">posts</text>
</g>
<!-- apptag -->
<g id="node9" class="node">
<title>apptag</title>
<polygon fill="none" stroke="black" points="1908,-519.19 1767,-519.19 1767,-334.19 1908,-334.19 1908,-519.19"/>
<polygon fill="#d3d3d3" stroke="transparent" points="1767.5,-481.69 1767.5,-518.69 1908.5,-518.69 1908.5,-481.69 1767.5,-481.69"/>
<polygon fill="none" stroke="black" points="1767.5,-481.69 1767.5,-518.69 1908.5,-518.69 1908.5,-481.69 1767.5,-481.69"/>
<text text-anchor="start" x="1828" y="-496.49" font-family="Helvetica Neue" font-size="14.00" fill="#333333">Tag</text>
<polygon fill="#ffffff" stroke="transparent" points="1767.5,-444.69 1767.5,-481.69 1908.5,-481.69 1908.5,-444.69 1767.5,-444.69"/>
<polygon fill="none" stroke="black" points="1767.5,-444.69 1767.5,-481.69 1908.5,-481.69 1908.5,-444.69 1767.5,-444.69"/>
<text text-anchor="start" x="1778.5" y="-459.49" font-family="Helvetica Neue" font-size="14.00" fill="#333333">id (bigint)</text>
<polygon fill="#ffffff" stroke="transparent" points="1767.5,-407.69 1767.5,-444.69 1908.5,-444.69 1908.5,-407.69 1767.5,-407.69"/>
<polygon fill="none" stroke="black" points="1767.5,-407.69 1767.5,-444.69 1908.5,-444.69 1908.5,-407.69 1767.5,-407.69"/>
<text text-anchor="start" x="1778.5" y="-422.49" font-family="Helvetica Neue" font-size="14.00" fill="#333333">name (string)</text>
<polygon fill="#ffffff" stroke="transparent" points="1767.5,-370.69 1767.5,-407.69 1908.5,-407.69 1908.5,-370.69 1767.5,-370.69"/>
<polygon fill="none" stroke="black" points="1767.5,-370.69 1767.5,-407.69 1908.5,-407.69 1908.5,-370.69 1767.5,-370.69"/>
<text text-anchor="start" x="1778.5" y="-385.49" font-family="Helvetica Neue" font-size="14.00" fill="#333333">created_at (datetime)</text>
<polygon fill="#ffffff" stroke="transparent" points="1767.5,-333.69 1767.5,-370.69 1908.5,-370.69 1908.5,-333.69 1767.5,-333.69"/>
<polygon fill="none" stroke="black" points="1767.5,-333.69 1767.5,-370.69 1908.5,-370.69 1908.5,-333.69 1767.5,-333.69"/>
<text text-anchor="start" x="1778.5" y="-348.49" font-family="Helvetica Neue" font-size="14.00" fill="#333333">updated_at (datetime)</text>
</g>
<!-- post_tag&#45;&gt;apptag -->
<g id="edge17" class="edge">
<title>post_tag:tag_id&#45;&gt;apptag:id</title>
<path fill="none" stroke="#003049" stroke-width="1.8" d="M1600.5,-463.69C1600.5,-463.69 1720.13,-463.69 1756.58,-463.69"/>
<polygon fill="#003049" stroke="#003049" stroke-width="1.8" points="1757,-467.19 1767,-463.69 1757,-460.19 1757,-467.19"/>
<text text-anchor="middle" x="1693" y="-467.49" font-family="Helvetica Neue" font-size="14.00"> </text>
<text text-anchor="middle" x="1723.04" y="-452.49" font-family="Helvetica Neue" font-size="14.00">BelongsToMany</text>
<text text-anchor="middle" x="1723.04" y="-437.49" font-family="Helvetica Neue" font-size="14.00">tags</text>
</g>
<!-- apptag&#45;&gt;post_tag -->
<g id="edge18" class="edge">
<title>apptag:id&#45;&gt;post_tag:tag_id</title>
<path fill="none" stroke="#003049" stroke-width="1.8" d="M1767,-463.69C1767,-463.69 1695,-430.69 1695,-430.69 1695,-430.69 1691,-430.69 1691,-430.69 1691,-430.69 1633.53,-451.64 1610.19,-460.16"/>
<polygon fill="#003049" stroke="#003049" stroke-width="1.8" points="1608.7,-456.98 1600.5,-463.69 1611.09,-463.55 1608.7,-456.98"/>
<text text-anchor="middle" x="1693" y="-434.49" font-family="Helvetica Neue" font-size="14.00"> </text>
<text text-anchor="middle" x="1645.18" y="-419.97" font-family="Helvetica Neue" font-size="14.00">BelongsToMany</text>
<text text-anchor="middle" x="1645.18" y="-404.97" font-family="Helvetica Neue" font-size="14.00">posts</text>
</g>
</g>
</svg>
